0
SECTION
2
HEADER
9
$INSUNITS
70
4
9
$ACADVER
1
AC1014
9
$HANDSEED
5
FFFF
0
ENDSEC
0
SECTION
2
TABLES
0
TABLE
2
VPORT
5
8
100
AcDbSymbolTable
0
ENDTAB
0
TABLE
2
LTYPE
5
5
100
AcDbSymbolTable
0
LTYPE
5
14
100
AcDbSymbolTableRecord
100
AcDbLinetypeTableRecord
2
BYBLOCK
70
0
0
LTYPE
5
15
100
AcDbSymbolTableRecord
100
AcDbLinetypeTableRecord
2
BYLAYER
70
0
0
LTYPE
5
16
100
AcDbSymbolTableRecord
100
AcDbLinetypeTableRecord
2
DASHED
70
0
3
Dashed __ __ __ __ __ __ __ __ __ __ __ __ __ _
72
65
73
2
40
0.75
49
0.5
74
0
49
-0.25
74
0
0
ENDTAB
0
TABLE
2
LAYER
5
2
100
AcDbSymbolTable
70
2
0
LAYER
5
50
100
AcDbSymbolTableRecord
100
AcDbLayerTableRecord
2
0
70
0
62
7
6
CONTINUOUS
0
ENDTAB
0
TABLE
2
STYLE
5
3
100
AcDbSymbolTable
70
1
0
STYLE
5
11
100
AcDbSymbolTableRecord
100
AcDbTextStyleTableRecord
2
STANDARD
70
0
0
ENDTAB
0
TABLE
2
VIEW
5
6
100
AcDbSymbolTable
70
0
0
ENDTAB
0
TABLE
2
UCS
5
7
100
AcDbSymbolTable
70
0
0
ENDTAB
0
TABLE
2
APPID
5
9
100
AcDbSymbolTable
70
2
0
APPID
5
12
100
AcDbSymbolTableRecord
100
AcDbRegAppTableRecord
2
ACAD
70
0
0
ENDTAB
0
TABLE
2
DIMSTYLE
5
A
100
AcDbSymbolTable
70
1
0
ENDTAB
0
TABLE
2
BLOCK_RECORD
5
1
100
AcDbSymbolTable
70
1
0
BLOCK_RECORD
5
1F
100
AcDbSymbolTableRecord
100
AcDbBlockTableRecord
2
*MODEL_SPACE
0
BLOCK_RECORD
5
1B
100
AcDbSymbolTableRecord
100
AcDbBlockTableRecord
2
*PAPER_SPACE
0
ENDTAB
0
ENDSEC
0
SECTION
2
BLOCKS
0
BLOCK
5
20
100
AcDbEntity
100
AcDbBlockBegin
2
*MODEL_SPACE
0
ENDBLK
5
21
100
AcDbEntity
100
AcDbBlockEnd
0
BLOCK
5
1C
100
AcDbEntity
100
AcDbBlockBegin
2
*PAPER_SPACE
0
ENDBLK
5
1D
100
AcDbEntity
100
AcDbBlockEnd
0
ENDSEC
0
SECTION
2
ENTITIES
0
LINE
5
100
100
AcDbEntity
8
0
100
AcDbLine
10
151.18661773577981
20
-47.200000000111473
30
0
11
151.18661773577043
21
-42.799999999991613
31
0
0
LINE
5
101
100
AcDbEntity
8
0
100
AcDbLine
10
150.38661773577044
20
-41.999999999990294
30
0
11
71.98694200020158
21
-41.999999999990578
31
0
0
LINE
5
102
100
AcDbEntity
8
0
100
AcDbLine
10
71.186942000184118
20
-42.800000000006094
30
0
11
71.186942000173346
21
-47.199999999995121
31
0
0
ARC
5
103
100
AcDbEntity
8
0
100
AcDbCircle
10
71.986942000173855
20
-47.199999999997075
30
0
40
0.80000000000050697
210
0
220
0
230
1
100
AcDbArc
50
180
51
270
0
ARC
5
104
100
AcDbEntity
8
0
100
AcDbCircle
10
71.98694200020158
20
-42.800000000008048
30
0
40
0.80000000001747118
210
0
220
-0
230
1
100
AcDbArc
50
90
51
180
0
ARC
5
105
100
AcDbEntity
8
0
100
AcDbCircle
10
150.38661773577044
20
-42.799999999993318
30
0
40
0.79999999999998295
210
-0
220
0
230
1
100
AcDbArc
50
0
51
90
0
ARC
5
106
100
AcDbEntity
8
0
100
AcDbCircle
10
150.38661773590246
20
-47.200000000113178
30
0
40
0.79999999987733439
210
0
220
0
230
1
100
AcDbArc
50
-90
51
0
0
ARC
5
107
100
AcDbEntity
8
0
100
AcDbCircle
10
104.14558135069998
20
-50.800031496800003
30
0
40
0.80003149702402321
210
-0
220
0
230
1
100
AcDbArc
50
-33.652193058057328
51
89.998664394856036
0
ARC
5
108
100
AcDbEntity
8
0
100
AcDbCircle
10
92.68999534809403
20
-50.800001509430004
30
0
40
0.8000015094435291
210
0
220
-0
230
1
100
AcDbArc
50
89.999666832405296
51
240.07311278943706
0
ARC
5
109
100
AcDbEntity
8
0
100
AcDbCircle
10
88.199999880048011
20
-58.599999813470006
30
0
40
8.2000006754485177
210
0
220
0
230
1
100
AcDbArc
50
-111.47210040482572
51
60.073563361663645
0
ARC
5
110
100
AcDbEntity
8
0
100
AcDbCircle
10
84.905591963931997
20
-66.975397094270008
30
0
40
0.8000217213133608
210
0
220
-0
230
1
100
AcDbArc
50
68.530471215850042
51
185.25673337352259
0
ARC
5
111
100
AcDbEntity
8
0
100
AcDbCircle
10
71.561743075417013
20
-68.203570754569995
30
0
40
12.600228788026007
210
-0
220
0
230
1
100
AcDbArc
50
-41.357303584367202
51
5.2588379052731558
0
ARC
5
112
100
AcDbEntity
8
0
100
AcDbCircle
10
81.619942877411063
20
-77.057791070090019
30
0
40
0.79994287746109383
210
0
220
0
230
1
100
AcDbArc
50
138.64072584484148
51
180.00063960297572
0
LINE
5
113
100
AcDbEntity
8
0
100
AcDbLine
10
80.819999999999851
20
-77.057800000000015
30
0
11
80.819999999999993
21
-78.962177999999994
31
0
0
ARC
5
114
100
AcDbEntity
8
0
100
AcDbCircle
10
81.620015108038984
20
-78.96216289196002
30
0
40
0.80001510818165367
210
0
220
0
230
1
100
AcDbArc
50
180.00108201284434
51
269.99891798684621
0
ARC
5
115
100
AcDbEntity
8
0
100
AcDbCircle
10
94.931463935878014
20
-78.962295620370043
30
0
40
0.7998823811886856
210
0
220
0
230
1
100
AcDbArc
50
269.99642308028604
51
315.67314118847645
0
ARC
5
116
100
AcDbEntity
8
0
100
AcDbCircle
10
97.899997259815009
20
-81.86218266548002
30
0
40
3.3500014369032245
210
-0
220
0
230
1
100
AcDbArc
50
-9.710682843986806
51
135.66948661510366
0
ARC
5
117
100
AcDbEntity
8
0
100
AcDbCircle
10
119.19995982256023
20
-67.343427492129905
30
0
40
0.80004017763100044
210
0
220
-0
230
1
100
AcDbArc
50
0.0012527184209569961
51
44.999357612743594
0
LINE
5
118
100
AcDbEntity
8
0
100
AcDbLine
10
119.7656800000033
20
-66.777719999996691
30
0
11
109.46727600000001
21
-56.479315999999997
31
0
0
ARC
5
119
100
AcDbEntity
8
0
100
AcDbCircle
10
108.89829605849003
20
-57.041613771179996
30
0
40
0.7999480966379573
210
0
220
-0
230
1
100
AcDbArc
50
44.661572307953243
51
108.23357983898556
0
ARC
5
120
100
AcDbEntity
8
0
100
AcDbCircle
10
107.60000859217001
20
-53.099971305690005
30
0
40
3.3500035274777118
210
0
220
0
230
1
100
AcDbArc
50
146.34374594019891
51
288.23002291045049
0
ARC
5
121
100
AcDbEntity
8
0
100
AcDbCircle
10
122.79998647563998
20
-83.928304874960006
30
0
40
0.79999744896762592
210
0
220
0
230
1
100
AcDbArc
50
180.30009792959558
51
236.85285449309947
0
ARC
5
122
100
AcDbEntity
8
0
100
AcDbCircle
10
135.38423099885
20
-97.102295579209994
30
0
40
3.3491565262350083
210
0
220
-0
230
1
100
AcDbArc
50
44.998531177363674
51
56.851709042524021
0
LINE
5
123
100
AcDbEntity
8
0
100
AcDbLine
10
137.75250299999777
20
-94.734145000002229
30
0
11
143.54531500000002
21
-100.52695700000001
31
0
0
ARC
5
124
100
AcDbEntity
8
0
100
AcDbCircle
10
145.52521599999002
20
-98.547059999989997
30
0
40
2.800000017930377
210
0
220
0
230
1
100
AcDbArc
50
-135.00005787718766
51
45.000057871345909
0
ARC
5
125
100
AcDbEntity
8
0
100
AcDbCircle
10
141.84828905849002
20
-92.041613771179954
30
0
40
0.79994809663793243
210
0
220
-0
230
1
100
AcDbArc
50
44.661572307951083
51
108.23357983898603
0
ARC
5
126
100
AcDbEntity
8
0
100
AcDbCircle
10
140.54999137853
20
-88.099984978630005
30
0
40
3.3499933984950032
210
0
220
0
230
1
100
AcDbArc
50
236.85279642063284
51
288.23026198554572
0
LINE
5
127
100
AcDbEntity
8
0
100
AcDbLine
10
138.718242
20
-90.904829000000007
30
0
11
129.42759599999999
21
-84.837383000000003
31
0
0
ARC
5
128
100
AcDbEntity
8
0
100
AcDbCircle
10
131.14999195447001
20
-82.200000044180001
30
0
40
3.1499899491320003
210
0
220
-0
230
1
100
AcDbArc
50
61.412522606229167
51
236.85264762155415
0
LINE
5
129
100
AcDbEntity
8
0
100
AcDbLine
10
132.65726199999929
20
-79.434033000001293
30
0
11
132.65727200000001
21
-79.434015000000002
31
0
0
LINE
5
130
100
AcDbEntity
8
0
100
AcDbLine
10
132.65727200000001
20
-79.434015000000002
30
0
11
133.207696
21
-79.733959999999996
31
0
0
ARC
5
131
100
AcDbEntity
8
0
100
AcDbCircle
10
134.04999339303001
20
-78.199999855119998
30
0
40
1.7499996069672299
210
0
220
0
230
1
100
AcDbArc
50
241.22881499242513
51
359.99999524638952
0
ARC
5
132
100
AcDbEntity
8
0
100
AcDbCircle
10
134.04999301827999
20
-66.200000393029995
30
0
40
1.7500099800932223
210
0
220
0
230
1
100
AcDbArc
50
-0.1936788715419826
51
118.58745216751552
0
LINE
5
133
100
AcDbEntity
8
0
100
AcDbLine
10
133.2126139999977
20
-64.663337999995775
30
0
11
132.65726100000001
21
-64.965968000000004
31
0
0
ARC
5
134
100
AcDbEntity
8
0
100
AcDbCircle
10
131.14999288349
20
-62.200000460779997
30
0
40
3.1499894607830048
210
0
220
-0
230
1
100
AcDbArc
50
89.999997880776732
51
298.58744227543116
0
LINE
5
135
100
AcDbEntity
8
0
100
AcDbLine
10
131.14999299999999
20
-59.050010999996999
30
0
11
131.14999299999999
21
-59.049988999999997
31
0
0
LINE
5
136
100
AcDbEntity
8
0
100
AcDbLine
10
131.14999299999999
20
-59.049988999999997
30
0
11
135.00399200000001
21
-59.049988999999997
31
0
0
ARC
5
137
100
AcDbEntity
8
0
100
AcDbCircle
10
134.99999498871998
20
-58.250000973870002
30
0
40
0.79999801127911807
210
0
220
0
230
1
100
AcDbArc
50
-89.71373325109623
51
6.9743430849598728e-05
0
ARC
5
138
100
AcDbEntity
8
0
100
AcDbCircle
10
134.99999154912001
20
-50.800001450870013
30
0
40
0.80000145088131913
210
0
220
-0
230
1
100
AcDbArc
50
0.00010390814622045157
51
89.999896088564313
0
ARC
5
139
100
AcDbEntity
8
0
100
AcDbCircle
10
122.79999445086999
20
-50.800001450869985
30
0
40
0.80000145087130048
210
0
220
0
230
1
100
AcDbArc
50
90.000103910720213
51
179.9998960918538
0
LINE
5
140
100
AcDbEntity
8
0
100
AcDbLine
10
121.99999299999932
20
-50.799999999999997
30
0
11
121.99999300000002
21
-52.200000000000003
31
0
0
ARC
5
141
100
AcDbEntity
8
0
100
AcDbCircle
10
121.19999154912001
20
-52.199998549120004
30
0
40
0.80000145087200214
210
-0
220
0
230
1
100
AcDbArc
50
270.00010391143775
51
359.9998960883463
0
LINE
5
142
100
AcDbEntity
8
0
100
AcDbLine
10
121.19999300000002
20
-52.999999999990692
30
0
11
119.39999299999999
21
-53.000000000000007
31
0
0
ARC
5
143
100
AcDbEntity
8
0
100
AcDbCircle
10
119.39999299999999
20
-55.799999999999997
30
0
40
2.7999999999999936
210
0
220
-0
230
1
100
AcDbArc
50
90
51
270
0
LINE
5
144
100
AcDbEntity
8
0
100
AcDbLine
10
119.39999299999999
20
-58.600000000000001
30
0
11
121.19999300000002
21
-58.600000000000001
31
0
0
ARC
5
145
100
AcDbEntity
8
0
100
AcDbCircle
10
121.19999325624001
20
-59.399999743760006
30
0
40
0.80000074376001096
210
-0
220
0
230
1
100
AcDbArc
50
-1.8351168930218065e-05
51
90.000018351843025
0
LINE
5
146
100
AcDbEntity
8
0
100
AcDbLine
10
151.18661773573234
20
-121.76224599993782
30
0
11
151.18661773572416
21
-117.36224599992343
31
0
0
ARC
5
147
100
AcDbEntity
8
0
100
AcDbCircle
10
150.38661773572412
20
-117.36224599992494
30
0
40
0.80000000000001847
210
-0
220
0
230
1
100
AcDbArc
50
0
51
90
0
ARC
5
148
100
AcDbEntity
8
0
100
AcDbCircle
10
71.986942000057837
20
-117.3622459999492
30
0
40
0.80000000002428351
210
0
220
-0
230
1
100
AcDbArc
50
90
51
180
0
LINE
5
149
100
AcDbEntity
8
0
100
AcDbLine
10
71.186942000033554
20
-117.36224599994615
30
0
11
71.186942000016813
21
-121.76224599992389
31
0
0
ARC
5
150
100
AcDbEntity
8
0
100
AcDbCircle
10
71.986942000014793
20
-121.76224599992693
30
0
40
0.79999999999797566
210
0
220
0
230
1
100
AcDbArc
50
180
51
269.99999999999898
0
LINE
5
151
100
AcDbEntity
8
0
100
AcDbLine
10
71.986942000014778
20
-122.56224599992491
30
0
11
150.38661773574674
21
-122.56224599992491
31
0
0
ARC
5
152
100
AcDbEntity
8
0
100
AcDbCircle
10
150.38661773574677
20
-121.76224599993931
30
0
40
0.79999999998559446
210
0
220
0
230
1
100
AcDbArc
50
-90.000000000002032
51
0
0
ARC
5
153
100
AcDbEntity
8
0
100
AcDbCircle
10
122.80359488193474
20
-49
30
0
40
0.99999999999999645
210
0
220
0
230
1
100
AcDbArc
50
-89.99999999999838
51
90.000000000284984
0
ARC
5
154
100
AcDbEntity
8
0
100
AcDbCircle
10
126.80359488192978
20
-48.99999999999978
30
0
40
1.0000000000013642
210
0
220
0
230
1
100
AcDbArc
50
90.000000000648939
51
270.00000000000324
0
LINE
5
155
100
AcDbEntity
8
0
100
AcDbLine
10
122.80359488193477
20
-50
30
0
11
122.799993
21
-50
31
0
0
LINE
5
156
100
AcDbEntity
8
0
100
AcDbLine
10
126.80359488192984
20
-49.99999999999978
30
0
11
134.99999299999999
21
-49.999999999999318
31
0
0
LINE
5
157
100
AcDbEntity
8
0
100
AcDbLine
10
121.99999779321968
20
-74.909523746245114
30
0
11
122.00000000000001
21
-83.932495000000017
31
0
0
LINE
5
158
100
AcDbEntity
8
0
100
AcDbLine
10
121.99999681492537
20
-70.90952374624527
30
0
11
121.99999399999997
21
-59.399999999999451
31
0
0
ARC
5
159
100
AcDbEntity
8
0
100
AcDbCircle
10
138.59999299998972
20
-65.649708757147323
30
0
40
0.80000000000000071
210
0
220
0
230
1
100
AcDbArc
50
180
51
270
0
LINE
5
160
100
AcDbEntity
8
0
100
AcDbLine
10
138.59999299998972
20
-66.44970875714732
30
0
11
144.63661773577019
21
-66.449708757147349
31
0
0
LINE
5
161
100
AcDbEntity
8
0
100
AcDbLine
10
146.23661773577072
20
-78.776708757147318
30
0
11
150.38661773577073
21
-78.776708757147304
31
0
0
ARC
5
162
100
AcDbEntity
8
0
100
AcDbCircle
10
150.38661773577073
20
-77.976708757147307
30
0
40
0.80000000000000959
210
-0
220
0
230
1
100
AcDbArc
50
-90
51
0
0
LINE
5
163
100
AcDbEntity
8
0
100
AcDbLine
10
151.18661773577074
20
-77.976708757147307
30
0
11
151.18661773577048
21
-50.799999999985133
31
0
0
ARC
5
164
100
AcDbEntity
8
0
100
AcDbCircle
10
138.59999300000001
20
-50.800000000000026
30
0
40
0.80000000000000959
210
0
220
-0
230
1
100
AcDbArc
50
89.999999999997954
51
180
0
LWPOLYLINE
5
165
100
AcDbEntity
8
0
100
AcDbPolyline
90
4
70
1
43
0.0
10
139.34999300000263
20
-55.312427189286026
42
0.99999999999999989
10
142.5499929999938
20
-55.312427189277216
10
142.5499929999938
20
-52.912427189281843
42
1.0000015246419256
10
139.34999299999669
20
-52.912432068162332
0
LWPOLYLINE
5
166
100
AcDbEntity
8
0
100
AcDbPolyline
90
4
70
1
43
0.0
10
139.34999299999669
20
-63.537276688978338
42
1.0000015246419256
10
142.5499929999938
20
-63.537281567888812
10
142.5499929999938
20
-61.137281567858786
42
0.99999999999999989
10
139.34999300000263
20
-61.137281567858786
0
LINE
5
167
100
AcDbEntity
8
0
100
AcDbLine
10
135.79999299999679
20
-55.996497313267199
30
0
11
135.7999929999954
21
-58.25
31
0
0
LINE
5
168
100
AcDbEntity
8
0
100
AcDbLine
10
138.59999299999674
20
-68.449708757147349
30
0
11
142.6366177357703
21
-68.449708757147349
31
0
0
ARC
5
169
100
AcDbEntity
8
0
100
AcDbCircle
10
136.79999299999795
20
-71.097785927736311
30
0
40
0.99999999999999645
210
0
220
0
230
1
100
AcDbArc
50
-180
51
0
0
ARC
5
170
100
AcDbEntity
8
0
100
AcDbCircle
10
136.79999299999631
20
-75.097785927736311
30
0
40
0.99999999999843325
210
-0
220
0
230
1
100
AcDbArc
50
0
51
180
0
LINE
5
171
100
AcDbEntity
8
0
100
AcDbLine
10
143.43661773577031
20
-69.249708757147346
30
0
11
143.43661773577037
21
-71.097785927736311
31
0
0
LINE
5
172
100
AcDbEntity
8
0
100
AcDbLine
10
137.79999299999673
20
-83.702243164768376
30
0
11
137.79999299999474
21
-75.097785927736311
31
0
0
LINE
5
173
100
AcDbEntity
8
0
100
AcDbLine
10
135.79999299999795
20
-71.097785927735885
30
0
11
135.799993
21
-66.205916000000002
31
0
0
LINE
5
174
100
AcDbEntity
8
0
100
AcDbLine
10
135.79999299999474
20
-75.097785927735885
30
0
11
135.79999299999503
21
-78.200000000000017
31
0
0
ARC
5
175
100
AcDbEntity
8
0
100
AcDbCircle
10
144.43661773577054
20
-75.097785927736311
30
0
40
1.0000000000053433
210
-0
220
0
230
1
100
AcDbArc
50
0
51
179.99981435968644
0
ARC
5
176
100
AcDbEntity
8
0
100
AcDbCircle
10
144.43661773577037
20
-71.097785927736311
30
0
40
0.99999999999999645
210
0
220
0
230
1
100
AcDbArc
50
-180
51
0
0
LINE
5
177
100
AcDbEntity
8
0
100
AcDbLine
10
145.43661773577074
20
-77.97670875714735
30
0
11
145.43661773577588
21
-75.097785927736268
31
0
0
LINE
5
178
100
AcDbEntity
8
0
100
AcDbLine
10
145.43661773577037
20
-71.097785927736268
30
0
11
145.43661773577017
21
-67.249708757147303
31
0
0
ARC
5
179
100
AcDbEntity
8
0
100
AcDbCircle
10
142.49330536788466
20
-48.999999999990685
30
0
40
1.0000000000044196
210
0
220
0
230
1
100
AcDbArc
50
-89.999999999939746
51
90.000000000011397
0
ARC
5
180
100
AcDbEntity
8
0
100
AcDbCircle
10
146.49330536788466
20
-48.999999999977504
30
0
40
0.99999999999999645
210
0
220
-0
230
1
100
AcDbArc
50
90
51
270.00000000007327
0
LINE
5
181
100
AcDbEntity
8
0
100
AcDbLine
10
146.49330536788594
20
-49.999999999977504
30
0
11
150.38661773576942
21
-49.999999999985143
31
0
0
LINE
5
182
100
AcDbEntity
8
0
100
AcDbLine
10
142.49330536788571
20
-49.999999999995104
30
0
11
138.59999300000004
21
-50.000000000000014
31
0
0
ARC
5
183
100
AcDbEntity
8
0
100
AcDbCircle
10
136.79999299999852
20
-55.649830254207622
30
0
40
1.0000000000014175
210
-0
220
0
230
1
100
AcDbArc
50
0
51
180
0
ARC
5
184
100
AcDbEntity
8
0
100
AcDbCircle
10
136.79999299999997
20
-51.649830254207615
30
0
40
1.0000000000002629
210
0
220
0
230
1
100
AcDbArc
50
180
51
360
0
LINE
5
185
100
AcDbEntity
8
0
100
AcDbLine
10
135.79999299999704
20
-55.649830254207004
30
0
11
135.79999299999679
21
-55.996497313267199
31
0
0
LINE
5
186
100
AcDbEntity
8
0
100
AcDbLine
10
135.799993
20
-50.799999999999997
30
0
11
135.79999299999972
21
-51.649830254206996
31
0
0
ARC
5
187
100
AcDbEntity
8
0
100
AcDbCircle
10
146.23661773577075
20
-77.976708757147307
30
0
40
0.80000000000001847
210
0
220
0
230
1
100
AcDbArc
50
180
51
269.99999999999795
0
ARC
5
188
100
AcDbEntity
8
0
100
AcDbCircle
10
150.38661773577047
20
-50.799999999985133
30
0
40
0.80000000000000071
210
0
220
0
230
1
100
AcDbArc
50
0
51
90.000000000075303
0
ARC
5
189
100
AcDbEntity
8
0
100
AcDbCircle
10
144.63661773577016
20
-67.249708757147346
30
0
40
0.80000000000000071
210
0
220
-0
230
1
100
AcDbArc
50
0
51
89.999999999997954
0
LINE
5
190
100
AcDbEntity
8
0
100
AcDbLine
10
137.79999299999997
20
-51.649830254207636
30
0
11
137.799993
21
-50.800000000000018
31
0
0
LINE
5
191
100
AcDbEntity
8
0
100
AcDbLine
10
137.79999299999992
20
-55.649830254207643
30
0
11
137.79999299998971
21
-65.649708757146755
31
0
0
LINE
5
192
100
AcDbEntity
8
0
100
AcDbLine
10
146.49330536788466
20
-47.999999999977511
30
0
11
150.38661773590246
21
-47.999999999990514
31
0
0
ARC
5
193
100
AcDbEntity
8
0
100
AcDbCircle
10
101.99049197624001
20
-82.56221629114998
30
0
40
0.79996170888227536
210
0
220
0
230
1
100
AcDbArc
50
170.28595856947413
51
270.00057468698571
0
ARC
5
194
100
AcDbEntity
8
0
100
AcDbCircle
10
116.39659978574002
20
-82.562299053730044
30
0
40
0.79987894626998501
210
0
220
0
230
1
100
AcDbArc
50
270.00001534756336
51
329.99996086621968
0
LINE
5
195
100
AcDbEntity
8
0
100
AcDbLine
10
117.08931499999279
20
-82.962238999995833
30
0
11
119.890415
21
-78.110591999999997
31
0
0
ARC
5
196
100
AcDbEntity
8
0
100
AcDbCircle
10
119.19962104445
20
-77.706351742489971
30
0
40
0.80037895700486261
210
0
220
0
230
1
100
AcDbArc
50
329.66459316921686
51
359.99654544687547
0
LINE
5
197
100
AcDbEntity
8
0
100
AcDbLine
10
142.49330536788446
20
-47.999999999987608
30
0
11
126.80359488191846
21
-47.999999999998415
31
0
0
LINE
5
198
100
AcDbEntity
8
0
100
AcDbLine
10
122.80359488192977
20
-47.9999999999906
30
0
11
98.304528580317111
21
-47.999999999990514
31
0
0
ARC
5
199
100
AcDbEntity
8
0
100
AcDbCircle
10
94.304528580317111
20
-49.000000000001222
30
0
40
0.99999999999999645
210
0
220
0
230
1
100
AcDbArc
50
-89.999999999988603
51
90
0
ARC
5
200
100
AcDbEntity
8
0
100
AcDbCircle
10
98.304528580317111
20
-48.999999999990507
30
0
40
0.99999999999999645
210
0
220
-0
230
1
100
AcDbArc
50
90
51
270.00000000001222
0
LINE
5
201
100
AcDbEntity
8
0
100
AcDbLine
10
94.30452858031731
20
-50.000000000001215
30
0
11
92.689999999999998
21
-50
31
0
0
LINE
5
202
100
AcDbEntity
8
0
100
AcDbLine
10
98.304528580317324
20
-49.999999999990507
30
0
11
104.14560000000002
21
-49.999999999993349
31
0
0
ARC
5
203
100
AcDbEntity
8
0
100
AcDbCircle
10
120.9999984074627
20
-70.909523990818457
30
0
40
0.99999840746269442
210
0
220
0
230
1
100
AcDbArc
50
-180
51
1.4002928947190925e-05
0
ARC
5
204
100
AcDbEntity
8
0
100
AcDbCircle
10
120.99999889660987
20
-74.909523990818428
30
0
40
0.99999889660982932
210
0
220
-0
230
1
100
AcDbArc
50
1.4002928947190925e-05
51
180
0
LINE
5
205
100
AcDbEntity
8
0
100
AcDbLine
10
120
20
-70.909523990818442
30
0
11
120
21
-67.343410000000006
31
0
0
LINE
5
206
100
AcDbEntity
8
0
100
AcDbLine
10
120
20
-74.9095239908184
30
0
11
120
21
-77.706400000000002
31
0
0
ARC
5
207
100
AcDbEntity
8
0
100
AcDbCircle
10
89.908357885144014
20
-99.962243095430011
30
0
40
0.79999709544199871
210
0
220
-0
230
1
100
AcDbArc
50
0.2862014826405293
51
90.000135013985059
0
ARC
5
208
100
AcDbEntity
8
0
100
AcDbCircle
10
71.987057003458006
20
-99.962348337000009
30
0
40
0.80017000345983591
210
0
220
-0
230
1
100
AcDbArc
50
89.2548627317518
51
179.99983266036534
0
LINE
5
209
100
AcDbEntity
8
0
100
AcDbLine
10
71.18688699999943
20
-99.962346000000011
30
0
11
71.186886999999999
21
-103.112146
31
0
0
LINE
5
210
100
AcDbEntity
8
0
100
AcDbLine
10
74.197693999999998
20
-108.59545
30
0
11
72.827734000000007
21
-109.213435
31
0
0
ARC
5
211
100
AcDbEntity
8
0
100
AcDbCircle
10
73.986857741425979
20
-111.76224549870001
30
0
40
2.8000005011107998
210
0
220
0
230
1
100
AcDbArc
50
114.45463857109453
51
269.99996436559258
0
ARC
5
212
100
AcDbEntity
8
0
100
AcDbCircle
10
89.908336720602023
20
-113.76223772060001
30
0
40
0.80000827944283537
210
0
220
0
230
1
100
AcDbArc
50
270.00059296206433
51
359.99940703776053
0
LINE
5
213
100
AcDbEntity
8
0
100
AcDbLine
10
90.708345000000165
20
-113.762246
30
0
11
90.708345000000008
21
-109.56234600000002
31
0
0
LINE
5
214
100
AcDbEntity
8
0
100
AcDbLine
10
90.708345000000008
20
-100.562246
30
0
11
90.708345000000833
21
-99.958247
31
0
0
ARC
5
215
100
AcDbEntity
8
0
100
AcDbCircle
10
89.908412885144003
20
-82.562255095430004
30
0
40
0.79999709544201636
210
0
220
-0
230
1
100
AcDbArc
50
0.28620148263925588
51
90.00013501398405
0
ARC
5
216
100
AcDbEntity
8
0
100
AcDbCircle
10
71.987110322961001
20
-82.562358634500015
30
0
40
0.80016832296002494
210
0
220
-0
230
1
100
AcDbArc
50
89.2547408251463
51
179.99995457314404
0
LINE
5
217
100
AcDbEntity
8
0
100
AcDbLine
10
71.186941999999235
20
-82.562358000000003
30
0
11
71.186942000000002
21
-85.712158000000017
31
0
0
LINE
5
218
100
AcDbEntity
8
0
100
AcDbLine
10
74.197749000000002
20
-91.195462000000006
30
0
11
72.827788999999996
21
-91.813446999999996
31
0
0
ARC
5
219
100
AcDbEntity
8
0
100
AcDbCircle
10
73.986911529634995
20
-94.362257761400002
30
0
40
2.8000002385956853
210
0
220
0
230
1
100
AcDbArc
50
114.4546137736678
51
269.99998916219755
0
ARC
5
220
100
AcDbEntity
8
0
100
AcDbCircle
10
89.908393427754007
20
-96.36225142775001
30
0
40
0.80000657227699457
210
0
220
0
230
1
100
AcDbArc
50
270.00047069857976
51
359.99952930195968
0
LINE
5
221
100
AcDbEntity
8
0
100
AcDbLine
10
90.708400000000012
20
-83.162257999999994
30
0
11
90.708400000000836
21
-82.558259000000021
31
0
0
ARC
5
222
100
AcDbEntity
8
0
100
AcDbCircle
10
115.32984447036002
20
-101.9622462385
30
0
40
2.8000002385979927
210
0
220
0
230
1
100
AcDbArc
50
-65.545386227086183
51
89.999989162095176
0
ARC
5
223
100
AcDbEntity
8
0
100
AcDbCircle
10
99.408362572246006
20
-99.96225257223999
30
0
40
0.80000657226699368
210
0
220
0
230
1
100
AcDbArc
50
90.000470698580784
51
179.99952930195974
0
LINE
5
224
100
AcDbEntity
8
0
100
AcDbLine
10
98.608356000000015
20
-99.962245999999993
30
0
11
98.608356000000015
21
-104.16214600000002
31
0
0
LINE
5
225
100
AcDbEntity
8
0
100
AcDbLine
10
98.608356000000015
20
-113.162246
30
0
11
98.608356000000015
21
-113.766245
31
0
0
ARC
5
226
100
AcDbEntity
8
0
100
AcDbCircle
10
99.408343114856009
20
-113.76224890450001
30
0
40
0.79999709544151343
210
0
220
0
230
1
100
AcDbArc
50
180.28620148765285
51
270.00013501398399
0
ARC
5
227
100
AcDbEntity
8
0
100
AcDbCircle
10
117.32964567703002
20
-113.76214536540003
30
0
40
0.80016832305987284
210
0
220
0
230
1
100
AcDbArc
50
269.25474082588352
51
359.99995455710064
0
LINE
5
228
100
AcDbEntity
8
0
100
AcDbLine
10
118.12981399999175
20
-113.762146
30
0
11
118.129814
21
-110.612346
31
0
0
LINE
5
229
100
AcDbEntity
8
0
100
AcDbLine
10
115.119007
20
-105.12904200000001
30
0
11
116.48896699996243
21
-104.51105699991736
31
0
0
ARC
5
230
100
AcDbEntity
8
0
100
AcDbCircle
10
138.35128488514005
20
-99.962243095429983
30
0
40
0.79999709544196307
210
0
220
-0
230
1
100
AcDbArc
50
0.28620148263925588
51
90.000135013699065
0
ARC
5
231
100
AcDbEntity
8
0
100
AcDbCircle
10
120.42998232295997
20
-99.96234663449998
30
0
40
0.80016832296002072
210
0
220
-0
230
1
100
AcDbArc
50
89.254740825073029
51
179.99995457314404
0
LINE
5
232
100
AcDbEntity
8
0
100
AcDbLine
10
119.62981399999825
20
-99.962346000000011
30
0
11
119.62981400000001
21
-103.112146
31
0
0
LINE
5
233
100
AcDbEntity
8
0
100
AcDbLine
10
122.64062100000001
20
-108.59545
30
0
11
121.270661
21
-109.213435
31
0
0
ARC
5
234
100
AcDbEntity
8
0
100
AcDbCircle
10
122.42978352963
20
-111.76224576140001
30
0
40
2.8000002385936149
210
0
220
0
230
1
100
AcDbArc
50
114.45461377357464
51
269.99998916229987
0
ARC
5
235
100
AcDbEntity
8
0
100
AcDbCircle
10
138.35126542775001
20
-113.76223942770002
30
0
40
0.80000657232698125
210
0
220
0
230
1
100
AcDbArc
50
270.00047069886568
51
359.99952929808819
0
LINE
5
236
100
AcDbEntity
8
0
100
AcDbLine
10
139.151271999996
20
-113.762246
30
0
11
139.15127200000001
21
-109.56234600000002
31
0
0
LINE
5
237
100
AcDbEntity
8
0
100
AcDbLine
10
139.15127200000001
20
-100.562246
30
0
11
139.15127199999682
21
-99.958247000000014
31
0
0
ARC
5
238
100
AcDbEntity
8
0
100
AcDbCircle
10
135.25536619088876
20
-96.362245999899287
30
0
40
0.80000000000000071
210
0
220
0
230
1
100
AcDbArc
50
-90
51
56.852633914140085
0
ARC
5
239
100
AcDbEntity
8
0
100
AcDbCircle
10
119.63673252921238
20
-86.162177999998164
30
0
40
0.80000000000000626
210
0
220
-0
230
1
100
AcDbArc
50
56.852633914139226
51
90
0
LINE
5
240
100
AcDbEntity
8
0
100
AcDbLine
10
143.43661773577045
20
-75.097782687689289
30
0
11
143.43661773577065
21
-79.97670875714735
31
0
0
ARC
5
241
100
AcDbEntity
8
0
100
AcDbCircle
10
138.59999299999674
20
-83.702243164768348
30
0
40
0.80000000000000071
210
0
220
0
230
1
100
AcDbArc
50
180
51
225.0000056306514
0
LINE
5
242
100
AcDbEntity
8
0
100
AcDbLine
10
151.18661773577077
20
-81.576708757147316
30
0
11
151.18661773577077
21
-94.563231438564813
31
0
0
LINE
5
243
100
AcDbEntity
8
0
100
AcDbLine
10
149.46098340848624
20
-95.363231438564839
30
0
11
150.38661773577076
21
-95.36323143856481
31
0
0
ARC
5
244
100
AcDbEntity
8
0
100
AcDbCircle
10
142.6366177357703
20
-69.24970875714736
30
0
40
0.80000000000000071
210
0
220
-0
230
1
100
AcDbArc
50
0
51
90
0
ARC
5
245
100
AcDbEntity
8
0
100
AcDbCircle
10
138.59999299999674
20
-69.24970875714736
30
0
40
0.80000000000000071
210
0
220
-0
230
1
100
AcDbArc
50
90
51
180
0
ARC
5
246
100
AcDbEntity
8
0
100
AcDbCircle
10
149.46098340848624
20
-94.563231438564856
30
0
40
0.79999999999996962
210
0
220
0
230
1
100
AcDbArc
50
225.0000056306514
51
270
0
ARC
5
247
100
AcDbEntity
8
0
100
AcDbCircle
10
150.38661773577076
20
-94.563231438564813
30
0
40
0.80000000000000071
210
-0
220
0
230
1
100
AcDbArc
50
-90
51
0
0
ARC
5
248
100
AcDbEntity
8
0
100
AcDbCircle
10
150.38661773577078
20
-81.576708757147316
30
0
40
0.80000000000000071
210
0
220
-0
230
1
100
AcDbArc
50
0
51
90
0
ARC
5
249
100
AcDbEntity
8
0
100
AcDbCircle
10
144.23661773577069
20
-79.976708757147307
30
0
40
0.80000000000003624
210
0
220
0
230
1
100
AcDbArc
50
180
51
269.9999998453996
0
LINE
5
250
100
AcDbEntity
8
0
100
AcDbLine
10
110.07084038311584
20
-85.362177999950177
30
0
11
119.63673252921238
21
-85.362177999998167
31
0
0
LINE
5
251
100
AcDbEntity
8
0
100
AcDbLine
10
116.39660000000001
20
-83.362178
30
0
11
110.07084038311886
21
-83.362177999997272
31
0
0
ARC
5
252
100
AcDbEntity
8
0
100
AcDbCircle
10
133.52198887625403
20
-93.080376596110725
30
0
40
1.0000000000000102
210
0
220
-0
230
1
100
AcDbArc
50
56.852633914138721
51
236.85263391413918
0
ARC
5
253
100
AcDbEntity
8
0
100
AcDbCircle
10
130.17292099178977
20
-90.893199350149615
30
0
40
0.99999999999999545
210
0
220
0
230
1
100
AcDbArc
50
-123.14736608586036
51
56.852633914138266
0
LINE
5
254
100
AcDbEntity
8
0
100
AcDbLine
10
130.71971530328005
20
-90.05593237903355
30
0
11
122.36255499999929
21
-84.598118000001094
31
0
0
LINE
5
255
100
AcDbEntity
8
0
100
AcDbLine
10
120.0741679784046
20
-85.4923644231053
30
0
11
129.62612668029951
21
-91.730466321265681
31
0
0
LINE
5
256
100
AcDbEntity
8
0
100
AcDbLine
10
132.97519456476377
20
-93.917643567226776
30
0
11
135.69280164008097
21
-95.692432423006423
31
0
0
LINE
5
257
100
AcDbEntity
8
0
100
AcDbLine
10
137.215576
20
-94.298186999999999
30
0
11
134.06878318774432
21
-92.243109624994645
31
0
0
ARC
5
258
100
AcDbEntity
8
0
100
AcDbCircle
10
144.44935862967648
20
-92.097191806882179
30
0
40
1.0000000000000153
210
0
220
0
230
1
100
AcDbArc
50
-134.99999436934849
51
45.000005630652687
0
ARC
5
259
100
AcDbEntity
8
0
100
AcDbCircle
10
147.27778603238187
20
-94.925618653669176
30
0
40
1.0000000000000029
210
0
220
-0
230
1
100
AcDbArc
50
45.000005630652687
51
225.00000563065268
0
LINE
5
260
100
AcDbEntity
8
0
100
AcDbLine
10
138.03430763063935
20
-84.267928645309411
30
0
11
145.15646534137321
21
-91.39008495620584
31
0
0
LINE
5
261
100
AcDbEntity
8
0
100
AcDbLine
10
143.74225191797973
20
-92.804298657558519
30
0
11
142.417269
21
-91.479315999999997
31
0
0
LINE
5
262
100
AcDbEntity
8
0
100
AcDbLine
10
147.98489274407859
20
-94.218511802992836
30
0
11
148.89529803912887
21
-95.12891691910589
31
0
0
LINE
5
263
100
AcDbEntity
8
0
100
AcDbLine
10
147.50511300020165
20
-96.567159000202111
30
0
11
146.57067932068512
21
-95.632725504345544
31
0
0
LINE
5
264
100
AcDbEntity
8
0
100
AcDbLine
10
108.74193438496482
20
-116.56224599992085
30
0
11
128.96515649017596
21
-116.56224599992491
31
0
0
LINE
5
265
100
AcDbEntity
8
0
100
AcDbLine
10
132.96515646291613
20
-116.56224599992491
30
0
11
150.38661773572412
21
-116.56224599992491
31
0
0
LINE
5
266
100
AcDbEntity
8
0
100
AcDbLine
10
107.39162703311236
20
-97.162245999899412
30
0
11
126.19026832878362
21
-97.16224599990062
31
0
0
LINE
5
267
100
AcDbEntity
8
0
100
AcDbLine
10
130.19026832878362
20
-97.16224599990062
30
0
11
135.25536619088876
21
-97.162245999899284
31
0
0
LINE
5
268
100
AcDbEntity
8
0
100
AcDbLine
10
137.79999299999761
20
-71.097785927736311
30
0
11
137.79999299999673
21
-69.249708757147374
31
0
0
LINE
5
269
100
AcDbEntity
8
0
100
AcDbLine
10
144.23661773361206
20
-80.776708757147333
30
0
11
150.38661773577078
21
-80.776708757147333
31
0
0
ARC
5
270
100
AcDbEntity
8
0
100
AcDbCircle
10
71.986905524338013
20
-103.1121274769
30
0
40
0.80001852455244671
210
0
220
0
230
1
100
AcDbArc
50
180.0013265884254
51
269.99645316268931
0
LINE
5
271
100
AcDbEntity
8
0
100
AcDbLine
10
71.986856000000017
20
-103.91214599992013
30
0
11
73.190256000000005
21
-103.91214600000001
31
0
0
ARC
5
272
100
AcDbEntity
8
0
100
AcDbCircle
10
73.190257814006003
20
-106.36214528700002
30
0
40
2.4499992870730001
210
-0
220
0
230
1
100
AcDbArc
50
-65.720030674632085
51
90.00004242241549
0
LINE
5
273
100
AcDbEntity
8
0
100
AcDbLine
10
74.19768699997266
20
-108.59543499993939
30
0
11
74.197693999999998
21
-108.59545
31
0
0
ARC
5
274
100
AcDbEntity
8
0
100
AcDbCircle
10
93.15835482900502
20
-109.5623448971
30
0
40
2.4500098290049928
210
0
220
0
230
1
100
AcDbArc
50
114.42642484470002
51
180.00002578339868
0
LINE
5
275
100
AcDbEntity
8
0
100
AcDbLine
10
92.145215999968286
20
-107.33162799993013
30
0
11
93.513107000000005
21
-106.71457500000001
31
0
0
ARC
5
276
100
AcDbEntity
8
0
100
AcDbCircle
10
92.361755180380015
20
-104.16224547089999
30
0
40
2.7999994710103353
210
-0
220
0
230
1
100
AcDbArc
50
-65.719939511562117
51
89.99998322829444
0
LINE
5
277
100
AcDbEntity
8
0
100
AcDbLine
10
92.361756000000014
20
-101.3622459999421
30
0
11
91.508356000000006
21
-101.362246
31
0
0
ARC
5
278
100
AcDbEntity
8
0
100
AcDbCircle
10
91.508357450871003
20
-100.56224454910001
30
0
40
0.80000145087199326
210
0
220
0
230
1
100
AcDbArc
50
180.0001039116537
51
269.99989608920754
0
LINE
5
279
100
AcDbEntity
8
0
100
AcDbLine
10
90.708356000000322
20
-100.562246
30
0
11
90.708345000000008
21
-100.562246
31
0
0
ARC
5
280
100
AcDbEntity
8
0
100
AcDbCircle
10
71.986960524701018
20
-85.712139476610005
30
0
40
0.80001852491546077
210
0
220
0
230
1
100
AcDbArc
50
180.00132660930532
51
269.99645313669339
0
LINE
5
281
100
AcDbEntity
8
0
100
AcDbLine
10
71.986911000000021
20
-86.512157999992098
30
0
11
73.190311000000008
21
-86.512158000000014
31
0
0
ARC
5
282
100
AcDbEntity
8
0
100
AcDbCircle
10
73.190311603705993
20
-88.962157547420006
30
0
40
2.4499995474230065
210
-0
220
0
230
1
100
AcDbArc
50
-65.720002369832997
51
90.000014118290366
0
LINE
5
283
100
AcDbEntity
8
0
100
AcDbLine
10
74.197741999999224
20
-91.195446999998282
30
0
11
74.197749000000002
21
-91.195462000000006
31
0
0
ARC
5
284
100
AcDbEntity
8
0
100
AcDbCircle
10
93.158409829004995
20
-92.162356897180018
30
0
40
2.4500098290049959
210
0
220
0
230
1
100
AcDbArc
50
114.4264248439262
51
180.00002578339868
0
LINE
5
285
100
AcDbEntity
8
0
100
AcDbLine
10
92.145270999998388
20
-89.931639999996463
30
0
11
93.513161999999994
21
-89.314587000000003
31
0
0
ARC
5
286
100
AcDbEntity
8
0
100
AcDbCircle
10
92.361811130331006
20
-86.762257266610021
30
0
40
2.7999992666131357
210
-0
220
0
230
1
100
AcDbArc
50
-65.719958949731307
51
90.000002666934847
0
LINE
5
287
100
AcDbEntity
8
0
100
AcDbLine
10
92.361811000000017
20
-83.962257999998045
30
0
11
91.508410999999995
21
-83.96225800000002
31
0
0
ARC
5
288
100
AcDbEntity
8
0
100
AcDbCircle
10
91.508412450871006
20
-83.162256549120016
30
0
40
0.80000145087199326
210
0
220
0
230
1
100
AcDbArc
50
180.0001039116537
51
269.99989608920652
0
LINE
5
289
100
AcDbEntity
8
0
100
AcDbLine
10
90.708411000000325
20
-83.162257999999994
30
0
11
90.708400000000012
21
-83.162257999999994
31
0
0
ARC
5
290
100
AcDbEntity
8
0
100
AcDbCircle
10
96.158346170995017
20
-104.16214710280002
30
0
40
2.450009829004995
210
-0
220
0
230
1
100
AcDbArc
50
-65.573575156267168
51
2.5783398697588023e-05
0
LINE
5
291
100
AcDbEntity
8
0
100
AcDbLine
10
97.171484999994092
20
-106.39286399998699
30
0
11
95.803594000000004
21
-107.00991700000002
31
0
0
ARC
5
292
100
AcDbEntity
8
0
100
AcDbCircle
10
96.954944869669021
20
-109.56224673329999
30
0
40
2.7999992665311035
210
0
220
0
230
1
100
AcDbArc
50
114.28004105102663
51
270.00000266693485
0
LINE
5
293
100
AcDbEntity
8
0
100
AcDbLine
10
96.954945000000009
20
-112.36224599991196
30
0
11
97.808345000000003
21
-112.362246
31
0
0
ARC
5
294
100
AcDbEntity
8
0
100
AcDbCircle
10
97.808343549129006
20
-113.1622474508
30
0
40
0.80000145087199315
210
0
220
-0
230
1
100
AcDbArc
50
0.00010390463859487557
51
89.999896089207525
0
LINE
5
295
100
AcDbEntity
8
0
100
AcDbLine
10
98.608344999999687
20
-113.162246
30
0
11
98.608356000000015
21
-113.162246
31
0
0
ARC
5
296
100
AcDbEntity
8
0
100
AcDbCircle
10
117.32979547529
20
-110.6123645233
30
0
40
0.80001852492443826
210
0
220
-0
230
1
100
AcDbArc
50
0.0013266027117272436
51
89.996453136048117
0
LINE
5
297
100
AcDbEntity
8
0
100
AcDbLine
10
117.32984500000001
20
-109.81234599991792
30
0
11
116.12644500000002
21
-109.81234600000001
31
0
0
ARC
5
298
100
AcDbEntity
8
0
100
AcDbCircle
10
116.12644439629001
20
-107.36234645250001
30
0
40
2.4499995474230007
210
0
220
0
230
1
100
AcDbArc
50
114.2799976308506
51
270.0000141183844
0
LINE
5
299
100
AcDbEntity
8
0
100
AcDbLine
10
115.11901399997014
20
-105.12905699993375
30
0
11
115.119007
21
-105.12904200000001
31
0
0
ARC
5
300
100
AcDbEntity
8
0
100
AcDbCircle
10
120.42983252470002
20
-103.11212747659999
30
0
40
0.80001852491445746
210
0
220
0
230
1
100
AcDbArc
50
180.0013266098548
51
269.99645313676461
0
LINE
5
301
100
AcDbEntity
8
0
100
AcDbLine
10
120.42978300000001
20
-103.91214599998209
30
0
11
121.633183
21
-103.91214600000001
31
0
0
ARC
5
302
100
AcDbEntity
8
0
100
AcDbCircle
10
121.6331836037
20
-106.3621455474
30
0
40
2.4499995474230056
210
-0
220
0
230
1
100
AcDbArc
50
-65.720002369897585
51
90.000014118150446
0
LINE
5
303
100
AcDbEntity
8
0
100
AcDbLine
10
122.64061399999072
20
-108.59543499997942
30
0
11
122.64062100000001
21
-108.59545
31
0
0
ARC
5
304
100
AcDbEntity
8
0
100
AcDbCircle
10
141.60128182899999
20
-109.5623448971
30
0
40
2.4500098290050047
210
0
220
0
230
1
100
AcDbArc
50
114.42642484459279
51
180.00002578339868
0
LINE
5
305
100
AcDbEntity
8
0
100
AcDbLine
10
140.58814299996743
20
-107.33162799992824
30
0
11
141.95603399999999
21
-106.71457500000001
31
0
0
ARC
5
306
100
AcDbEntity
8
0
100
AcDbCircle
10
140.80468313033003
20
-104.16224526660002
30
0
40
2.7999992666226605
210
-0
220
0
230
1
100
AcDbArc
50
-65.719958949797459
51
90.000002666915051
0
LINE
5
307
100
AcDbEntity
8
0
100
AcDbLine
10
140.80468300000001
20
-101.36224599998805
30
0
11
139.95128299999999
21
-101.362246
31
0
0
ARC
5
308
100
AcDbEntity
8
0
100
AcDbCircle
10
139.95128445086999
20
-100.56224454910001
30
0
40
0.80000145087199326
210
0
220
0
230
1
100
AcDbArc
50
180.0001039116537
51
269.99989608927876
0
LINE
5
309
100
AcDbEntity
8
0
100
AcDbLine
10
139.15128299999932
20
-100.562246
30
0
11
139.15127200000001
21
-100.562246
31
0
0
ARC
5
310
100
AcDbEntity
8
0
100
AcDbCircle
10
93.508401509444667
20
-96.362244490455964
30
0
40
0.800001509443522
210
0
220
0
230
1
100
AcDbArc
50
180
51
270
0
LINE
5
311
100
AcDbEntity
8
0
100
AcDbLine
10
92.973360193653875
20
-91.752163915154128
30
0
11
96.33369257914336
21
-90.236324437118867
31
0
0
ARC
5
312
100
AcDbEntity
8
0
100
AcDbCircle
10
95.182341571885729
20
-87.683994765794807
30
0
40
2.7999992666131734
210
0
220
0
230
1
100
AcDbArc
50
-65.719955861083463
51
0.24187687391942117
0
LINE
5
313
100
AcDbEntity
8
0
100
AcDbLine
10
97.982315888489921
20
-87.672174470063936
30
0
11
97.982315888489921
21
-86.162179509441046
31
0
0
ARC
5
314
100
AcDbEntity
8
0
100
AcDbCircle
10
98.78231739793344
20
-86.162179509441046
30
0
40
0.800001509443522
210
0
220
-0
230
1
100
AcDbArc
50
90
51
180
0
ARC
5
315
100
AcDbEntity
8
0
100
AcDbCircle
10
93.158397956629642
20
-92.162357999999998
30
0
40
0.44999795662826669
210
0
220
0
230
1
100
AcDbArc
50
114.28004413891951
51
180
0
LINE
5
316
100
AcDbEntity
8
0
100
AcDbLine
10
78.819999999999752
20
-78.962257999973261
30
0
11
78.819999999999752
21
-50.800000000008289
31
0
0
LINE
5
317
100
AcDbEntity
8
0
100
AcDbLine
10
71.186942000162418
20
-50.800000000008289
30
0
11
71.186942000162418
21
-78.962257999973261
31
0
0
ARC
5
318
100
AcDbEntity
8
0
100
AcDbCircle
10
71.986942000179894
20
-50.800000000008289
30
0
40
0.80000000001747118
210
0
220
-0
230
1
100
AcDbArc
50
90
51
180
0
ARC
5
319
100
AcDbEntity
8
0
100
AcDbCircle
10
78.019999999982289
20
-50.800000000008289
30
0
40
0.80000000001747118
210
0
220
-0
230
1
100
AcDbArc
50
0
51
90
0
ARC
5
320
100
AcDbEntity
8
0
100
AcDbCircle
10
78.019999999982289
20
-78.962257999973261
30
0
40
0.80000000001747118
210
0
220
0
230
1
100
AcDbArc
50
-90
51
0
0
ARC
5
321
100
AcDbEntity
8
0
100
AcDbCircle
10
71.986942000179894
20
-78.962257999973261
30
0
40
0.80000000001747118
210
0
220
0
230
1
100
AcDbArc
50
180
51
270
0
ARC
5
322
100
AcDbEntity
8
0
100
AcDbCircle
10
72.923718785612394
20
-80.762257999995114
30
0
40
1.0000000000044018
210
-0
220
0
230
1
100
AcDbArc
50
-89.999999999968253
51
90
0
ARC
5
323
100
AcDbEntity
8
0
100
AcDbCircle
10
76.923718785612394
20
-80.762257999993849
30
0
40
1.000000000003114
210
0
220
-0
230
1
100
AcDbArc
50
90
51
269.99999999997311
0
LINE
5
324
100
AcDbEntity
8
0
100
AcDbLine
10
72.923718785612394
20
-79.762257999990737
30
0
11
71.986942000179894
21
-79.762257999990737
31
0
0
LINE
5
325
100
AcDbEntity
8
0
100
AcDbLine
10
72.923718785612948
20
-81.76225799999952
30
0
11
71.997517999999999
21
-81.762258000000003
31
0
0
LINE
5
326
100
AcDbEntity
8
0
100
AcDbLine
10
76.923718785611925
20
-81.762257999996962
30
0
11
84.704350513437845
21
-81.762258000000955
31
0
0
LINE
5
327
100
AcDbEntity
8
0
100
AcDbLine
10
76.923718785612394
20
-79.762257999990737
30
0
11
78.019999999982289
21
-79.762257999990737
31
0
0
ARC
5
328
100
AcDbEntity
8
0
100
AcDbCircle
10
73.035303525155427
20
-48.999999999993918
30
0
40
0.99999999999693223
210
0
220
0
230
1
100
AcDbArc
50
-90.000000000065143
51
90.000000000065143
0
ARC
5
329
100
AcDbEntity
8
0
100
AcDbCircle
10
77.035303525154305
20
-48.999999999987701
30
0
40
0.9999999999921716
210
0
220
0
230
1
100
AcDbArc
50
90.00000000000081
51
270
0
LINE
5
330
100
AcDbEntity
8
0
100
AcDbLine
10
73.035303525154291
20
-47.999999999997598
30
0
11
71.986942000173855
21
-47.999999999990813
31
0
0
LINE
5
331
100
AcDbEntity
8
0
100
AcDbLine
10
73.035303525154291
20
-49.999999999990848
30
0
11
71.986942000179894
21
-49.99999999999082
31
0
0
LINE
5
332
100
AcDbEntity
8
0
100
AcDbLine
10
77.035303525154305
20
-49.99999999999082
30
0
11
78.019999999982289
21
-49.99999999999082
31
0
0
LINE
5
333
100
AcDbEntity
8
0
100
AcDbLine
10
77.035303525154291
20
-47.999999999995531
30
0
11
94.304528580317111
21
-48.000000000001222
31
0
0
ARC
5
334
100
AcDbEntity
8
0
100
AcDbCircle
10
88.704350513438257
20
-80.764352637123494
30
0
40
0.99790820016131665
210
0
220
0
230
1
100
AcDbArc
50
90.039253714918985
51
270.00013501398274
0
ARC
5
335
100
AcDbEntity
8
0
100
AcDbCircle
10
84.704350513438328
20
-80.762218000003259
30
0
40
1.0000399999976928
210
0
220
0
230
1
100
AcDbArc
50
-90.000000000027683
51
90.000000000002444
0
LINE
5
336
100
AcDbEntity
8
0
100
AcDbLine
10
84.704350513438285
20
-79.762178000001541
30
0
11
81.620000000000005
21
-79.762177999999338
31
0
0
LINE
5
337
100
AcDbEntity
8
0
100
AcDbLine
10
88.704352864947595
20
-81.76226083728055
30
0
11
89.908411000000001
21
-81.762257999990197
31
0
0
LINE
5
338
100
AcDbEntity
8
0
100
AcDbLine
10
88.703666840028575
20
-79.766444671156762
30
0
11
94.931414000000004
21
-79.762178000000006
31
0
0
ARC
5
339
100
AcDbEntity
8
0
100
AcDbCircle
10
79.380413894162956
20
-98.162251999997522
30
0
40
0.99999399999870064
210
0
220
0
230
1
100
AcDbArc
50
-89.99999999998046
51
90.000000000003254
0
ARC
5
340
100
AcDbEntity
8
0
100
AcDbCircle
10
83.380413894162928
20
-98.162251999996428
30
0
40
0.99999399999724403
210
0
220
-0
230
1
100
AcDbArc
50
89.999999999992667
51
270.00000000002768
0
LINE
5
341
100
AcDbEntity
8
0
100
AcDbLine
10
73.986911000000006
20
-97.162257999997962
30
0
11
79.380413894162899
21
-97.162257999998786
31
0
0
LINE
5
342
100
AcDbEntity
8
0
100
AcDbLine
10
83.380413894163055
20
-97.162257999999184
30
0
11
89.9084
21
-97.162258000000008
31
0
0
LINE
5
343
100
AcDbEntity
8
0
100
AcDbLine
10
83.380413894163411
20
-99.162245999993516
30
0
11
89.908355999999998
21
-99.162245999990233
31
0
0
LINE
5
344
100
AcDbEntity
8
0
100
AcDbLine
10
79.380413894163297
20
-99.16224599999623
30
0
11
71.997462999999996
21
-99.162245999999996
31
0
0
ARC
5
345
100
AcDbEntity
8
0
100
AcDbCircle
10
83.386664371340942
20
-115.56224599994211
30
0
40
0.99999999998287237
210
0
220
-0
230
1
100
AcDbArc
50
89.999999999642554
51
269.99999999997232
0
LINE
5
346
100
AcDbEntity
8
0
100
AcDbLine
10
79.386664371347194
20
-114.56224599993422
30
0
11
73.986856000000003
21
-114.56224599990048
31
0
0
LINE
5
347
100
AcDbEntity
8
0
100
AcDbLine
10
83.38666437134718
20
-114.56224599995923
30
0
11
89.908344999999997
21
-114.562246
31
0
0
ARC
5
348
100
AcDbEntity
8
0
100
AcDbCircle
10
79.386664371340942
20
-115.56224599992957
30
0
40
0.99999999999534239
210
0
220
0
230
1
100
AcDbArc
50
-90
51
89.999999999641744
0
LINE
5
349
100
AcDbEntity
8
0
100
AcDbLine
10
79.386664371340942
20
-116.56224599992491
30
0
11
71.986942000057837
21
-116.56224599992491
31
0
0
LINE
5
350
100
AcDbEntity
8
0
100
AcDbLine
10
83.386664371340459
20
-116.56224599992495
30
0
11
104.74193438496479
21
-116.56224599992083
31
0
0
ARC
5
351
100
AcDbEntity
8
0
100
AcDbCircle
10
108.74193438496482
20
-115.56224599994437
30
0
40
0.99999999997644196
210
0
220
-0
230
1
100
AcDbArc
50
89.999999999827381
51
270
0
ARC
5
352
100
AcDbEntity
8
0
100
AcDbCircle
10
104.74193438496479
20
-115.56224599993831
30
0
40
0.9999999999825171
210
0
220
0
230
1
100
AcDbArc
50
-90
51
89.999999999825761
0
LINE
5
353
100
AcDbEntity
8
0
100
AcDbLine
10
104.74193438496783
20
-114.56224599995582
30
0
11
99.408345000000011
21
-114.56224599993976
31
0
0
LINE
5
354
100
AcDbEntity
8
0
100
AcDbLine
10
108.74193438496783
20
-114.56224599996793
30
0
11
117.31923800000001
21
-114.562246
31
0
0
ARC
5
355
100
AcDbEntity
8
0
100
AcDbCircle
10
132.96515692550344
20
-115.56224599992491
30
0
40
0.99999999999999645
210
0
220
-0
230
1
100
AcDbArc
50
89.999999999713395
51
269.99997349569952
0
ARC
5
356
100
AcDbEntity
8
0
100
AcDbCircle
10
128.96515692550344
20
-115.56224599992491
30
0
40
1.0000000000000913
210
0
220
0
230
1
100
AcDbArc
50
-90.000024942427245
51
89.999999999713395
0
LINE
5
357
100
AcDbEntity
8
0
100
AcDbLine
10
128.96515692550844
20
-114.56224600003057
30
0
11
122.42978300000001
21
-114.56224599999797
31
0
0
LINE
5
358
100
AcDbEntity
8
0
100
AcDbLine
10
132.96515692550844
20
-114.56224599992493
30
0
11
138.35127199999999
21
-114.562246
31
0
0
ARC
5
359
100
AcDbEntity
8
0
100
AcDbCircle
10
107.39162703311236
20
-98.162245999899397
30
0
40
0.99999999999999645
210
0
220
-0
230
1
100
AcDbArc
50
90
51
270.00000000002444
0
ARC
5
360
100
AcDbEntity
8
0
100
AcDbCircle
10
103.39162703311234
20
-98.162245999907185
30
0
40
0.99999999999999645
210
0
220
0
230
1
100
AcDbArc
50
-89.999999999975572
51
89.999999999997556
0
LINE
5
361
100
AcDbEntity
8
0
100
AcDbLine
10
107.39162703311278
20
-99.162245999899397
30
0
11
115.32984500000001
21
-99.162245999902069
31
0
0
LINE
5
362
100
AcDbEntity
8
0
100
AcDbLine
10
103.39162703311277
20
-99.162245999907185
30
0
11
99.408355999999998
21
-99.162245999999996
31
0
0
LINE
5
363
100
AcDbEntity
8
0
100
AcDbLine
10
103.39162703311239
20
-97.162245999907242
30
0
11
93.508401509444667
21
-97.162245999899483
31
0
0
ARC
5
364
100
AcDbEntity
8
0
100
AcDbCircle
10
130.19026832878362
20
-98.16224599990062
30
0
40
0.99999999999999645
210
0
220
-0
230
1
100
AcDbArc
50
90
51
270.00000000002927
0
ARC
5
365
100
AcDbEntity
8
0
100
AcDbCircle
10
126.19026832878362
20
-98.16224599990062
30
0
40
0.99999999999999645
210
0
220
0
230
1
100
AcDbArc
50
-89.999999999970697
51
90
0
LINE
5
366
100
AcDbEntity
8
0
100
AcDbLine
10
126.19026832878413
20
-99.162245999900605
30
0
11
120.44038999999999
21
-99.162245999999996
31
0
0
LINE
5
367
100
AcDbEntity
8
0
100
AcDbLine
10
130.19026832878413
20
-99.162245999900605
30
0
11
138.35128300000002
21
-99.162245999990247
31
0
0
ARC
5
368
100
AcDbEntity
8
0
100
AcDbCircle
10
110.07084038311584
20
-84.36217799997371
30
0
40
0.99999999997644196
210
0
220
-0
230
1
100
AcDbArc
50
89.999999999826571
51
270
0
ARC
5
369
100
AcDbEntity
8
0
100
AcDbCircle
10
106.07084038311582
20
-84.362177999967656
30
0
40
0.9999999999825171
210
0
220
0
230
1
100
AcDbArc
50
-90
51
89.999999999975572
0
LINE
5
370
100
AcDbEntity
8
0
100
AcDbLine
10
106.07084038311625
20
-83.362177999967656
30
0
11
101.9905
21
-83.362177999993762
31
0
0
LINE
5
371
100
AcDbEntity
8
0
100
AcDbLine
10
106.07084038311582
20
-85.362177999950163
30
0
11
98.78231739793344
21
-85.362177999997527
31
0
0
ARC
5
372
100
AcDbEntity
8
0
100
AcDbCircle
10
91.708400000000125
20
-96.162357999999998
30
0
40
1.0000000000008669
210
-0
220
0
230
1
100
AcDbArc
50
0
51
180
0
ARC
5
373
100
AcDbEntity
8
0
100
AcDbCircle
10
91.708400000000495
20
-92.162357999999998
30
0
40
1.0000000000004938
210
0
220
0
230
1
100
AcDbArc
50
-180
51
0
0
LINE
5
374
100
AcDbEntity
8
0
100
AcDbLine
10
90.708400000000012
20
-96.362257999999997
30
0
11
90.708400000000125
21
-96.162357999999358
31
0
0
LINE
5
375
100
AcDbEntity
8
0
100
AcDbLine
10
92.708400000000992
20
-96.162357999999998
30
0
11
92.708400000001149
21
-96.362244490455964
31
0
0
ENDSEC
0
SECTION
2
OBJECTS
0
DICTIONARY
5
C
100
AcDbDictionary
3
ACAD_GROUP
350
D
3
ACAD_MLINESTYLE
350
17
0
DICTIONARY
5
D
100
AcDbDictionary
0
DICTIONARY
5
1A
330
C
100
AcDbDictionary
0
DICTIONARY
5
17
100
AcDbDictionary
0
ENDSEC
0
EOF
