0
SECTION
2
HEADER
9
$INSUNITS
70
4
9
$ACADVER
1
AC1014
9
$HANDSEED
5
FFFF
0
ENDSEC
0
SECTION
2
TABLES
0
TABLE
2
VPORT
5
8
100
AcDbSymbolTable
0
ENDTAB
0
TABLE
2
LTYPE
5
5
100
AcDbSymbolTable
0
LTYPE
5
14
100
AcDbSymbolTableRecord
100
AcDbLinetypeTableRecord
2
BYBLOCK
70
0
0
LTYPE
5
15
100
AcDbSymbolTableRecord
100
AcDbLinetypeTableRecord
2
BYLAYER
70
0
0
LTYPE
5
16
100
AcDbSymbolTableRecord
100
AcDbLinetypeTableRecord
2
DASHED
70
0
3
Dashed __ __ __ __ __ __ __ __ __ __ __ __ __ _
72
65
73
2
40
0.75
49
0.5
74
0
49
-0.25
74
0
0
ENDTAB
0
TABLE
2
LAYER
5
2
100
AcDbSymbolTable
70
2
0
LAYER
5
50
100
AcDbSymbolTableRecord
100
AcDbLayerTableRecord
2
0
70
0
62
7
6
CONTINUOUS
0
ENDTAB
0
TABLE
2
STYLE
5
3
100
AcDbSymbolTable
70
1
0
STYLE
5
11
100
AcDbSymbolTableRecord
100
AcDbTextStyleTableRecord
2
STANDARD
70
0
0
ENDTAB
0
TABLE
2
VIEW
5
6
100
AcDbSymbolTable
70
0
0
ENDTAB
0
TABLE
2
UCS
5
7
100
AcDbSymbolTable
70
0
0
ENDTAB
0
TABLE
2
APPID
5
9
100
AcDbSymbolTable
70
2
0
APPID
5
12
100
AcDbSymbolTableRecord
100
AcDbRegAppTableRecord
2
ACAD
70
0
0
ENDTAB
0
TABLE
2
DIMSTYLE
5
A
100
AcDbSymbolTable
70
1
0
ENDTAB
0
TABLE
2
BLOCK_RECORD
5
1
100
AcDbSymbolTable
70
1
0
BLOCK_RECORD
5
1F
100
AcDbSymbolTableRecord
100
AcDbBlockTableRecord
2
*MODEL_SPACE
0
BLOCK_RECORD
5
1B
100
AcDbSymbolTableRecord
100
AcDbBlockTableRecord
2
*PAPER_SPACE
0
ENDTAB
0
ENDSEC
0
SECTION
2
BLOCKS
0
BLOCK
5
20
100
AcDbEntity
100
AcDbBlockBegin
2
*MODEL_SPACE
0
ENDBLK
5
21
100
AcDbEntity
100
AcDbBlockEnd
0
BLOCK
5
1C
100
AcDbEntity
100
AcDbBlockBegin
2
*PAPER_SPACE
0
ENDBLK
5
1D
100
AcDbEntity
100
AcDbBlockEnd
0
ENDSEC
0
SECTION
2
ENTITIES
0
LWPOLYLINE
5
100
100
AcDbEntity
8
0
100
AcDbPolyline
90
4
70
1
43
0.0
10
-4.3929784612437519
20
16.600000000000016
10
-4.3929784612437563
20
24.600000000000012
10
3.6070215387562432
20
24.600000000000023
10
3.6070215387562432
20
16.600000000000016
0
LINE
5
101
100
AcDbEntity
8
0
100
AcDbLine
10
12.407021538756604
20
-3.4000000000006581
30
0
11
6.0070215387572468
21
7.6851251684406652
31
0
0
LINE
5
102
100
AcDbEntity
8
0
100
AcDbLine
10
-6.7929784612427548
20
7.6851251684406723
30
0
11
-13.192978461243158
21
-3.3999999999994435
31
0
0
LINE
5
103
100
AcDbEntity
8
0
100
AcDbLine
10
-6.7929784612438358
20
-14.485125168440678
30
0
11
6.0070215387560433
21
-14.485125168441078
31
0
0
LINE
5
104
100
AcDbEntity
8
0
100
AcDbLine
10
-6.7929784612427548
20
7.6851251684406723
30
0
11
-6.7929784612427468
21
26.200000000000014
31
0
0
LINE
5
105
100
AcDbEntity
8
0
100
AcDbLine
10
-5.9929784612427497
20
27.000000000000011
30
0
11
5.207021538757461
21
27.000000000000011
31
0
0
LINE
5
106
100
AcDbEntity
8
0
100
AcDbLine
10
6.0070215387572716
20
26.200000000000202
30
0
11
6.0070215387572468
21
7.6851251684406652
31
0
0
ARC
5
107
100
AcDbEntity
8
0
100
AcDbCircle
10
-5.9929784612427506
20
26.200000000000014
30
0
40
0.79999999999999627
210
0
220
-0
230
1
100
AcDbArc
50
89.999999999999929
51
180
0
ARC
5
108
100
AcDbEntity
8
0
100
AcDbCircle
10
5.2070215387574637
20
26.200000000000195
30
0
40
0.79999999999980753
210
0
220
-0
230
1
100
AcDbArc
50
0
51
90.000000000000185
0
LINE
5
109
100
AcDbEntity
8
0
100
AcDbLine
10
-6.7929784612438358
20
-14.485125168440678
30
0
11
-22.827330413263095
21
-23.742562584220501
31
0
0
ARC
5
110
100
AcDbEntity
8
0
100
AcDbCircle
10
-23.227330413263655
20
-23.049742261191966
30
0
40
0.79999999999999238
210
0
220
0
230
1
100
AcDbArc
50
210.00000000004894
51
299.99999999999955
0
LINE
5
111
100
AcDbEntity
8
0
100
AcDbLine
10
-23.920150736290857
20
-23.449742261192554
30
0
11
-29.520150736290802
21
-13.75025773880693
31
0
0
ARC
5
112
100
AcDbEntity
8
0
100
AcDbCircle
10
-28.827330413266186
20
-13.350257738806144
30
0
40
0.79999999999765325
210
0
220
0
230
1
100
AcDbArc
50
119.99999999985982
51
210.00000000015382
0
LINE
5
113
100
AcDbEntity
8
0
100
AcDbLine
10
-29.227330413263317
20
-12.657437415779647
30
0
11
-13.192978461243158
21
-3.3999999999994435
31
0
0
LINE
5
114
100
AcDbEntity
8
0
100
AcDbLine
10
12.407021538756604
20
-3.4000000000006581
30
0
11
28.4413734907757
21
-12.657437415779484
31
0
0
ARC
5
115
100
AcDbEntity
8
0
100
AcDbCircle
10
28.04137349077461
20
-13.350257738808152
30
0
40
0.80000000000038496
210
-0
220
0
230
1
100
AcDbArc
50
-29.99999999992394
51
59.999999999972438
0
LINE
5
116
100
AcDbEntity
8
0
100
AcDbLine
10
28.734193813803024
20
-13.750257738807424
30
0
11
23.134193813803062
21
-23.449742261193034
31
0
0
ARC
5
117
100
AcDbEntity
8
0
100
AcDbCircle
10
22.441373490776289
20
-23.049742261195973
30
0
40
0.79999999999764759
210
0
220
0
230
1
100
AcDbArc
50
239.99999999985968
51
330.00000000015439
0
LINE
5
118
100
AcDbEntity
8
0
100
AcDbLine
10
22.041373490775769
20
-23.742562584220508
30
0
11
6.0070215387560433
21
-14.485125168441078
31
0
0
LWPOLYLINE
5
119
100
AcDbEntity
8
0
100
AcDbPolyline
90
4
70
1
43
0.0
10
-15.713486536932537
20
-16.864101615137731
10
-22.641689767208039
20
-20.864101615137738
10
-26.641689767208042
20
-13.935898384862238
10
-19.713486536931146
20
-9.9358983848632434
0
LWPOLYLINE
5
120
100
AcDbEntity
8
0
100
AcDbPolyline
90
4
70
1
43
0.0
10
18.927529614445014
20
-9.9358983848622415
10
25.855732844720528
20
-13.935898384862247
10
21.855732844720531
20
-20.864101615137738
10
14.927529614445017
20
-16.864101615137749
0
LWPOLYLINE
5
121
100
AcDbEntity
8
0
100
AcDbPolyline
90
8
70
1
43
0.0
10
20.525974434458362
20
2.9999990463256876
10
11.207021538757463
20
27.000000000000011
10
14.941998821341176
20
27.000000000000011
10
22.633833092295284
20
6.4021558761596742
10
22.96665350779211
20
6.4021558761596742
10
30.658487480723046
20
27
10
34.208563965403222
20
27
10
24.667731922709098
20
2.9999990463256854
0
SPLINE
5
122
100
AcDbEntity
8
0
100
AcDbSpline
70
0
71
2
72
6
73
3
74
0
42
0.000000001
43
0.0000000001
44
0.0000000001
40
0
40
0
40
0
40
1
40
1
40
1
10
47.336453598581905
20
5.0338978767394948
30
0
10
53.95586888178503
20
5.0338978767394904
30
0
10
53.95586888178503
20
9.1756553649902237
30
0
0
LINE
5
123
100
AcDbEntity
8
0
100
AcDbLine
10
53.95586888178503
20
9.1756553649902237
30
0
11
53.955868881785051
21
20.602466583251942
31
0
0
SPLINE
5
124
100
AcDbEntity
8
0
100
AcDbSpline
70
0
71
2
72
6
73
3
74
0
42
0.000000001
43
0.0000000001
44
0.0000000001
40
0
40
0
40
0
40
1
40
1
40
1
10
53.955868881785051
20
20.602466583251942
30
0
10
53.955868881785058
20
25.040063381195058
30
0
10
47.299474876963274
20
25.040063381195061
30
0
0
SPLINE
5
125
100
AcDbEntity
8
0
100
AcDbSpline
70
0
71
2
72
6
73
3
74
0
42
0.000000001
43
0.0000000001
44
0.0000000001
40
0
40
0
40
0
40
1
40
1
40
1
10
47.299474876963274
20
25.040063381195061
30
0
10
44.082216423594133
20
25.040063381195061
30
0
10
42.362648647867815
20
24.041604518890374
30
0
0
SPLINE
5
126
100
AcDbEntity
8
0
100
AcDbSpline
70
0
71
2
72
6
73
3
74
0
42
0.000000001
43
0.0000000001
44
0.0000000001
40
0
40
0
40
0
40
1
40
1
40
1
10
42.362648647867815
20
24.041604518890374
30
0
10
40.643080872141496
20
23.043143272399895
30
0
10
40.643080872141496
20
20.602466583251946
30
0
0
SPLINE
5
127
100
AcDbEntity
8
0
100
AcDbSpline
70
0
71
2
72
6
73
3
74
0
42
0.000000001
43
0.0000000001
44
0.0000000001
40
0
40
0
40
0
40
1
40
1
40
1
10
40.643080872141475
20
9.1756553649902273
30
0
10
40.643080872141475
20
5.0338978767394948
30
0
10
47.336453598581905
20
5.0338978767394948
30
0
0
LINE
5
128
100
AcDbEntity
8
0
100
AcDbLine
10
40.643080872141496
20
20.602466583251946
30
0
11
40.643080872141475
21
9.1756553649902273
31
0
0
SPLINE
5
129
100
AcDbEntity
8
0
100
AcDbSpline
70
0
71
2
72
6
73
3
74
0
42
0.000000001
43
0.0000000001
44
0.0000000001
40
0
40
0
40
0
40
1
40
1
40
1
10
47.262496155344628
20
27.369801521301262
30
0
10
57.431987923227929
20
27.369801521301255
30
0
10
57.431987923227922
20
20.528506755828843
30
0
0
LINE
5
130
100
AcDbEntity
8
0
100
AcDbLine
10
57.431987923227922
20
20.528506755828836
30
0
11
57.431987923227901
21
9.138674259185775
31
0
0
SPLINE
5
131
100
AcDbEntity
8
0
100
AcDbSpline
70
0
71
2
72
6
73
3
74
0
42
0.000000001
43
0.0000000001
44
0.0000000001
40
0
40
0
40
0
40
1
40
1
40
1
10
57.431987923227901
20
9.138674259185775
30
0
10
57.431987923227901
20
5.662557601928695
30
0
10
54.621509712778675
20
4.146377563476551
30
0
0
SPLINE
5
132
100
AcDbEntity
8
0
100
AcDbSpline
70
0
71
2
72
6
73
3
74
0
42
0.000000001
43
0.0000000001
44
0.0000000001
40
0
40
0
40
0
40
1
40
1
40
1
10
54.621509712778675
20
4.146377563476551
30
0
10
51.811031502329456
20
2.6301999092101935
30
0
10
47.262496155344593
20
2.630199909210198
30
0
0
SPLINE
5
133
100
AcDbEntity
8
0
100
AcDbSpline
70
0
71
2
72
6
73
3
74
0
42
0.000000001
43
0.0000000001
44
0.0000000001
40
0
40
0
40
0
40
1
40
1
40
1
10
47.262496155344593
20
2.630199909210198
30
0
10
37.20394293650304
20
2.6301999092102024
30
0
10
37.203942936503047
20
9.1386742591857875
30
0
0
SPLINE
5
134
100
AcDbEntity
8
0
100
AcDbSpline
70
0
71
2
72
6
73
3
74
0
42
0.000000001
43
0.0000000001
44
0.0000000001
40
0
40
0
40
0
40
1
40
1
40
1
10
37.203942936503068
20
20.491525650024411
30
0
10
37.203942936503076
20
27.369801521301266
30
0
10
47.262496155344628
20
27.369801521301262
30
0
0
LINE
5
135
100
AcDbEntity
8
0
100
AcDbLine
10
37.203942936503047
20
9.1386742591857875
30
0
11
37.203942936503068
21
20.491525650024411
31
0
0
SPLINE
5
136
100
AcDbEntity
8
0
100
AcDbSpline
70
0
71
2
72
6
73
3
74
0
42
0.000000001
43
0.0000000001
44
0.0000000001
40
0
40
0
40
0
40
1
40
1
40
1
10
71.410416763865129
20
26.999999999999979
30
0
10
74.590691727244035
20
26.999999999999975
30
0
10
76.384219330393449
20
26.611709117889379
30
0
0
SPLINE
5
137
100
AcDbEntity
8
0
100
AcDbSpline
70
0
71
2
72
6
73
3
74
0
42
0.000000001
43
0.0000000001
44
0.0000000001
40
0
40
0
40
0
40
1
40
1
40
1
10
76.384219330393449
20
26.611709117889379
30
0
10
78.177751701914445
20
26.223420619964575
30
0
10
79.009799164377824
20
25.224961757659887
30
0
0
SPLINE
5
138
100
AcDbEntity
8
0
100
AcDbSpline
70
0
71
2
72
6
73
3
74
0
42
0.000000001
43
0.0000000001
44
0.0000000001
40
0
40
0
40
0
40
1
40
1
40
1
10
79.009799164377824
20
25.224961757659887
30
0
10
79.841851395212785
20
24.226500511169409
30
0
10
79.841851395212785
20
22.303542613983129
30
0
0
LINE
5
139
100
AcDbEntity
8
0
100
AcDbLine
10
79.841851395212785
20
22.303542613983133
30
0
11
79.841851395212771
21
18.161785125732397
31
0
0
SPLINE
5
140
100
AcDbEntity
8
0
100
AcDbSpline
70
0
71
2
72
6
73
3
74
0
42
0.000000001
43
0.0000000001
44
0.0000000001
40
0
40
0
40
0
40
1
40
1
40
1
10
79.841851395212771
20
18.161785125732397
30
0
10
79.841851395212771
20
16.016947746276831
30
0
10
78.085297745310427
20
14.852079868316626
30
0
0
SPLINE
5
141
100
AcDbEntity
8
0
100
AcDbSpline
70
0
71
2
72
6
73
3
74
0
42
0.000000001
43
0.0000000001
44
0.0000000001
40
0
40
0
40
0
40
1
40
1
40
1
10
78.085297745310427
20
14.852079868316626
30
0
10
76.328753632151248
20
13.68721199035642
30
0
10
73.629216354929568
20
13.687211990356424
30
0
0
LINE
5
142
100
AcDbEntity
8
0
100
AcDbLine
10
73.629216354929568
20
13.687211990356424
30
0
11
81.321047943674671
21
2.9999990463256587
31
0
0
LINE
5
143
100
AcDbEntity
8
0
100
AcDbLine
10
81.321047943674671
20
2.9999990463256587
30
0
11
76.920432251535999
21
2.9999990463256609
31
0
0
LINE
5
144
100
AcDbEntity
8
0
100
AcDbLine
10
76.920432251535999
20
2.9999990463256609
30
0
11
70.042156380259144
21
13.243450641632059
31
0
0
LINE
5
145
100
AcDbEntity
8
0
100
AcDbLine
10
70.042156380259144
20
13.243450641632059
30
0
11
66.566037338816287
21
13.243450641632062
31
0
0
LINE
5
146
100
AcDbEntity
8
0
100
AcDbLine
10
66.566037338816287
20
13.243450641632062
30
0
11
66.566037338816272
21
2.9999990463256632
31
0
0
LINE
5
147
100
AcDbEntity
8
0
100
AcDbLine
10
66.566037338816272
20
2.9999990463256632
30
0
11
62.978982132517444
21
2.9999990463256649
31
0
0
LINE
5
148
100
AcDbEntity
8
0
100
AcDbLine
10
62.97898213251748
20
26.999999999999986
30
0
11
71.410416763865129
21
26.999999999999979
31
0
0
LINE
5
149
100
AcDbEntity
8
0
100
AcDbLine
10
62.978982132517444
20
2.9999990463256649
30
0
11
62.97898213251748
21
26.999999999999986
31
0
0
SPLINE
5
150
100
AcDbEntity
8
0
100
AcDbSpline
70
0
71
2
72
6
73
3
74
0
42
0.000000001
43
0.0000000001
44
0.0000000001
40
0
40
0
40
0
40
1
40
1
40
1
10
71.262497109018923
20
15.610167503356912
30
0
10
73.925055664621951
20
15.610167503356909
30
0
10
75.089921158396365
20
16.257316589355444
30
0
0
SPLINE
5
151
100
AcDbEntity
8
0
100
AcDbSpline
70
0
71
2
72
6
73
3
74
0
42
0.000000001
43
0.0000000001
44
0.0000000001
40
0
40
0
40
0
40
1
40
1
40
1
10
75.089921158396365
20
16.257316589355444
30
0
10
76.254791420542361
20
16.90446805953977
30
0
10
76.254791420542375
20
18.605546474456762
30
0
0
LINE
5
152
100
AcDbEntity
8
0
100
AcDbLine
10
76.254791420542375
20
18.605546474456762
30
0
11
76.254791420542375
21
21.933743476867651
31
0
0
SPLINE
5
153
100
AcDbEntity
8
0
100
AcDbSpline
70
0
71
2
72
6
73
3
74
0
42
0.000000001
43
0.0000000001
44
0.0000000001
40
0
40
0
40
0
40
1
40
1
40
1
10
76.254791420542375
20
21.933743476867651
30
0
10
76.254791420542375
20
24.633280754089331
30
0
10
71.595315140329973
20
24.633280754089334
30
0
0
LINE
5
154
100
AcDbEntity
8
0
100
AcDbLine
10
71.595315140329973
20
24.633280754089334
30
0
11
66.566037338816301
21
24.633280754089341
31
0
0
LINE
5
155
100
AcDbEntity
8
0
100
AcDbLine
10
66.566037338816287
20
15.610167503356918
30
0
11
71.262497109018923
21
15.610167503356912
31
0
0
LINE
5
156
100
AcDbEntity
8
0
100
AcDbLine
10
66.566037338816301
20
24.633280754089341
30
0
11
66.566037338816287
21
15.610167503356918
31
0
0
LWPOLYLINE
5
157
100
AcDbEntity
8
0
100
AcDbPolyline
90
8
70
1
43
0.0
10
84.131526154123932
20
24.485361099243136
10
84.131526154123918
20
26.999999999999975
10
103.98977200373331
20
26.999999999999964
10
103.98977200373331
20
24.485361099243125
10
95.891160172068268
20
24.485361099243129
10
95.891160172068226
20
2.9999990463256498
10
92.267121475779163
20
2.9999990463256516
10
92.267121475779206
20
24.485361099243129
0
LWPOLYLINE
5
158
100
AcDbEntity
8
0
100
AcDbPolyline
90
4
70
1
43
0.0
10
121.07451359614049
20
12.762710571289016
10
117.0067111669413
20
23.597843170165973
10
116.67389790400186
20
23.597843170165973
10
112.60609547480263
20
12.762710571289022
0
LWPOLYLINE
5
159
100
AcDbEntity
8
0
100
AcDbPolyline
90
8
70
1
43
0.0
10
119.11457936152139
20
26.999999999999957
10
128.43352238520299
20
2.9999990463256321
10
124.69855229242955
20
2.9999990463256343
10
121.96203152521767
20
10.285052776336618
10
111.68160359247838
20
10.285052776336627
10
108.98206631525669
20
2.9999990463256418
10
105.43198506220494
20
2.9999990463256427
10
114.97281948908487
20
26.999999999999957
0
SPLINE
5
160
100
AcDbEntity
8
0
100
AcDbSpline
70
0
71
2
72
6
73
3
74
0
42
0.000000001
43
0.0000000001
44
0.0000000001
40
0
40
0
40
0
40
1
40
1
40
1
10
141.67236248835241
20
5.181817531585633
30
0
10
144.6307651220194
20
5.181817531585633
30
0
10
148.18083683832799
20
6.0693354606627814
30
0
0
LINE
5
161
100
AcDbEntity
8
0
100
AcDbLine
10
148.18083683832799
20
6.0693354606627814
30
0
11
148.18083683832799
21
3.3328194618224494
31
0
0
SPLINE
5
162
100
AcDbEntity
8
0
100
AcDbSpline
70
0
71
2
72
6
73
3
74
0
42
0.000000001
43
0.0000000001
44
0.0000000001
40
0
40
0
40
0
40
1
40
1
40
1
10
148.18083683832799
20
3.3328194618224494
30
0
10
145.03754536493932
20
2.6301999092101447
30
0
10
141.45048062189733
20
2.6301999092101447
30
0
0
SPLINE
5
163
100
AcDbEntity
8
0
100
AcDbSpline
70
0
71
2
72
6
73
3
74
0
42
0.000000001
43
0.0000000001
44
0.0000000001
40
0
40
0
40
0
40
1
40
1
40
1
10
141.45048062189733
20
2.6301999092101447
30
0
10
131.35495106562291
20
2.6301999092101536
30
0
10
131.35495106562291
20
9.1386742591857395
30
0
0
LINE
5
164
100
AcDbEntity
8
0
100
AcDbLine
10
131.35495106562291
20
9.1386742591857395
30
0
11
131.35495106562294
21
20.528504371643017
31
0
0
SPLINE
5
165
100
AcDbEntity
8
0
100
AcDbSpline
70
0
71
2
72
6
73
3
74
0
42
0.000000001
43
0.0000000001
44
0.0000000001
40
0
40
0
40
0
40
1
40
1
40
1
10
131.35495106562291
20
20.528504371643017
30
0
10
131.35495106562297
20
27.406780242919872
30
0
10
141.45048062189738
20
27.406780242919861
30
0
0
SPLINE
5
166
100
AcDbEntity
8
0
100
AcDbSpline
70
0
71
2
72
6
73
3
74
0
42
0.000000001
43
0.0000000001
44
0.0000000001
40
0
40
0
40
0
40
1
40
1
40
1
10
141.45048062189738
20
27.406780242919861
30
0
10
144.8896209417216
20
27.406780242919861
30
0
10
148.03292195185344
20
26.704160690307557
30
0
0
LINE
5
167
100
AcDbEntity
8
0
100
AcDbLine
10
148.03292195185344
20
26.704160690307557
30
0
11
148.03292195185344
21
24.041602134704529
31
0
0
SPLINE
5
168
100
AcDbEntity
8
0
100
AcDbSpline
70
0
71
2
72
6
73
3
74
0
42
0.000000001
43
0.0000000001
44
0.0000000001
40
0
40
0
40
0
40
1
40
1
40
1
10
148.03292195185344
20
24.041602134704529
30
0
10
144.48284069880168
20
24.929122447967469
30
0
10
141.52443806513469
20
24.929122447967469
30
0
0
SPLINE
5
169
100
AcDbEntity
8
0
100
AcDbSpline
70
0
71
2
72
6
73
3
74
0
42
0.000000001
43
0.0000000001
44
0.0000000001
40
0
40
0
40
0
40
1
40
1
40
1
10
141.52443806513469
20
24.929122447967469
30
0
10
140.08222500666301
20
24.929122447967469
30
0
10
139.00980870112102
20
24.762711048126164
30
0
0
SPLINE
5
170
100
AcDbEntity
8
0
100
AcDbSpline
70
0
71
2
72
6
73
3
74
0
42
0.000000001
43
0.0000000001
44
0.0000000001
40
0
40
0
40
0
40
1
40
1
40
1
10
139.00980870112102
20
24.762711048126164
30
0
10
137.93738285883586
20
24.596302032470646
30
0
10
136.93892399653117
20
24.189521789550724
30
0
0
SPLINE
5
171
100
AcDbEntity
8
0
100
AcDbSpline
70
0
71
2
72
6
73
3
74
0
42
0.000000001
43
0.0000000001
44
0.0000000001
40
0
40
0
40
0
40
1
40
1
40
1
10
136.93892399653117
20
24.189521789550724
30
0
10
134.79409138544719
20
23.26502275466914
30
0
10
134.79409138544713
20
20.565485477447453
30
0
0
SPLINE
5
172
100
AcDbEntity
8
0
100
AcDbSpline
70
0
71
2
72
6
73
3
74
0
42
0.000000001
43
0.0000000001
44
0.0000000001
40
0
40
0
40
0
40
1
40
1
40
1
10
134.79409138544713
20
9.3235750198363689
30
0
10
134.79409138544713
20
5.1818175315856374
30
0
10
141.67236248835241
20
5.181817531585633
30
0
0
LINE
5
173
100
AcDbEntity
8
0
100
AcDbLine
10
134.79409138544713
20
20.565485477447453
30
0
11
134.79409138544713
21
9.3235750198363689
31
0
0
SPLINE
5
174
100
AcDbEntity
8
0
100
AcDbSpline
70
0
71
2
72
6
73
3
74
0
42
0.000000001
43
0.0000000001
44
0.0000000001
40
0
40
0
40
0
40
1
40
1
40
1
10
144.45951440742596
20
-6.3808621981230562
30
0
10
145.67985513618572
20
-6.3808621981230562
30
0
10
146.2137601654826
20
-6.0842527964201754
30
0
0
SPLINE
5
175
100
AcDbEntity
8
0
100
AcDbSpline
70
0
71
2
72
6
73
3
74
0
42
0.000000001
43
0.0000000001
44
0.0000000001
40
0
40
0
40
0
40
1
40
1
40
1
10
146.2137601654826
20
-6.0842527964201754
30
0
10
146.74765565803631
20
-5.7876410105315035
30
0
10
146.74765565803631
20
-5.0079812624541109
30
0
0
LINE
5
176
100
AcDbEntity
8
0
100
AcDbLine
10
146.74765565803631
20
-5.0079812624541109
30
0
11
146.74765565803631
21
-3.4825571396437471
31
0
0
SPLINE
5
177
100
AcDbEntity
8
0
100
AcDbSpline
70
0
71
2
72
6
73
3
74
0
42
0.000000001
43
0.0000000001
44
0.0000000001
40
0
40
0
40
0
40
1
40
1
40
1
10
146.74765565803631
20
-3.4825571396437471
30
0
10
146.74765565803631
20
-2.2452690222349947
30
0
10
144.6120641510783
20
-2.2452690222349938
30
0
0
LINE
5
178
100
AcDbEntity
8
0
100
AcDbLine
10
144.6120641510783
20
-2.2452690222349938
30
0
11
142.30697610786541
21
-2.2452690222349938
31
0
0
LINE
5
179
100
AcDbEntity
8
0
100
AcDbLine
10
142.30697610786541
20
-6.3808621981230553
30
0
11
144.45951440742596
21
-6.3808621981230562
31
0
0
LINE
5
180
100
AcDbEntity
8
0
100
AcDbLine
10
142.30697610786541
20
-2.2452690222349938
30
0
11
142.30697610786541
21
-6.3808621981230553
31
0
0
SPLINE
5
181
100
AcDbEntity
8
0
100
AcDbSpline
70
0
71
2
72
6
73
3
74
0
42
0.000000001
43
0.0000000001
44
0.0000000001
40
0
40
0
40
0
40
1
40
1
40
1
10
144.52731111457928
20
-1.1605228998747641
30
0
10
145.98494508674725
20
-1.1605228998747652
30
0
10
146.80697420051678
20
-1.338489256152231
30
0
0
SPLINE
5
182
100
AcDbEntity
8
0
100
AcDbSpline
70
0
71
2
72
6
73
3
74
0
42
0.000000001
43
0.0000000001
44
0.0000000001
40
0
40
0
40
0
40
1
40
1
40
1
10
146.80697420051678
20
-1.338489256152231
30
0
10
147.62901285102947
20
-1.5164556124296968
30
0
10
148.010368136674
20
-1.9740821936217134
30
0
0
SPLINE
5
183
100
AcDbEntity
8
0
100
AcDbSpline
70
0
71
2
72
6
73
3
74
0
42
0.000000001
43
0.0000000001
44
0.0000000001
40
0
40
0
40
0
40
1
40
1
40
1
10
148.010368136674
20
-1.9740821936217134
30
0
10
148.39172342231853
20
-2.4317099669066256
30
0
10
148.39172342231853
20
-3.3130653717604464
30
0
0
LINE
5
184
100
AcDbEntity
8
0
100
AcDbLine
10
148.39172342231853
20
-3.3130653717604464
30
0
11
148.39172342231853
21
-5.2113713839140718
31
0
0
SPLINE
5
185
100
AcDbEntity
8
0
100
AcDbSpline
70
0
71
2
72
6
73
3
74
0
42
0.000000001
43
0.0000000001
44
0.0000000001
40
0
40
0
40
0
40
1
40
1
40
1
10
148.39172342231853
20
-5.2113713839140718
30
0
10
148.39172342231853
20
-6.1944212534514254
30
0
10
147.58664110115154
20
-6.7283191301909273
30
0
0
SPLINE
5
186
100
AcDbEntity
8
0
100
AcDbSpline
70
0
71
2
72
6
73
3
74
0
42
0.000000001
43
0.0000000001
44
0.0000000001
40
0
40
0
40
0
40
1
40
1
40
1
10
147.58664110115154
20
-6.7283191301909273
30
0
10
146.78154924324139
20
-7.2622181990233248
30
0
10
145.54426172187908
20
-7.2622181990233248
30
0
0
LINE
5
187
100
AcDbEntity
8
0
100
AcDbLine
10
145.54426172187905
20
-7.2622181990233248
30
0
11
149.06969049385174
21
-12.160523138293344
31
0
0
LINE
5
188
100
AcDbEntity
8
0
100
AcDbLine
10
149.06969049385174
20
-12.160523138293344
30
0
11
147.05273607185467
21
-12.160523138293344
31
0
0
LINE
5
189
100
AcDbEntity
8
0
100
AcDbLine
10
147.05273607185467
20
-12.160523138293344
30
0
11
143.90019395759685
21
-7.4656083204832857
31
0
0
LINE
5
190
100
AcDbEntity
8
0
100
AcDbLine
10
143.90019395759685
20
-7.4656083204832857
30
0
11
142.30697610786541
21
-7.4656083204832857
31
0
0
LINE
5
191
100
AcDbEntity
8
0
100
AcDbLine
10
142.30697610786541
20
-7.4656083204832857
30
0
11
142.30697610786541
21
-12.160523138293344
31
0
0
LINE
5
192
100
AcDbEntity
8
0
100
AcDbLine
10
142.30697610786541
20
-12.160523138293344
30
0
11
140.66290834358318
21
-12.160523138293344
31
0
0
LINE
5
193
100
AcDbEntity
8
0
100
AcDbLine
10
140.66290834358318
20
-1.1605228998747641
30
0
11
144.52731111457928
21
-1.1605228998747641
31
0
0
LINE
5
194
100
AcDbEntity
8
0
100
AcDbLine
10
140.66290834358318
20
-12.160523138293344
30
0
11
140.66290834358318
21
-1.1605228998747641
31
0
0
LWPOLYLINE
5
195
100
AcDbEntity
8
0
100
AcDbPolyline
90
12
70
1
43
0.0
10
137.66291597297771
20
-5.906285248049814
10
137.66291597297771
20
-7.0588280775633638
10
132.47647264412029
20
-7.0588280775633638
10
132.47647264412029
20
-11.007980308779794
10
138.39172342231853
20
-11.007980308779794
10
138.39172342231853
20
-12.160523138293344
10
130.83240487983807
20
-12.160523138293344
10
130.83240487983807
20
-1.1605228998747652
10
138.22223642280682
20
-1.1605228998747643
10
138.22223642280682
20
-2.3130657293883141
10
132.47647264412029
20
-2.3130657293883137
10
132.47647264412029
20
-5.9062852480498131
0
SPLINE
5
196
100
AcDbEntity
8
0
100
AcDbSpline
70
0
71
2
72
6
73
3
74
0
42
0.000000001
43
0.0000000001
44
0.0000000001
40
0
40
0
40
0
40
1
40
1
40
1
10
124.2730806153117
20
-12.330014906176643
30
0
10
123.4934232514201
20
-12.330014906176643
30
0
10
122.8917215149699
20
-12.262218199023323
30
0
0
SPLINE
5
197
100
AcDbEntity
8
0
100
AcDbSpline
70
0
71
2
72
6
73
3
74
0
42
0.000000001
43
0.0000000001
44
0.0000000001
40
0
40
0
40
0
40
1
40
1
40
1
10
122.8917215149699
20
-12.262218199023323
30
0
10
122.29002931526287
20
-12.194421491870003
30
0
10
121.62900903633221
20
-12.007980547198372
30
0
0
SPLINE
5
198
100
AcDbEntity
8
0
100
AcDbSpline
70
0
71
2
72
6
73
3
74
0
42
0.000000001
43
0.0000000001
44
0.0000000001
40
0
40
0
40
0
40
1
40
1
40
1
10
121.62900903633221
20
-12.007980547198372
30
0
10
120.88325479438885
20
-11.804590425738411
30
0
10
120.37477472236736
20
-11.4910318472472
30
0
0
SPLINE
5
199
100
AcDbEntity
8
0
100
AcDbSpline
70
0
71
2
72
6
73
3
74
0
42
0.000000001
43
0.0000000001
44
0.0000000001
40
0
40
0
40
0
40
1
40
1
40
1
10
120.37477472236736
20
-11.4910318472472
30
0
10
119.86630418708904
20
-11.177472076663094
30
0
10
119.54426744392498
20
-10.635099611529427
30
0
0
SPLINE
5
200
100
AcDbEntity
8
0
100
AcDbSpline
70
0
71
2
72
6
73
3
74
0
42
0.000000001
43
0.0000000001
44
0.0000000001
40
0
40
0
40
0
40
1
40
1
40
1
10
119.54426744392498
20
-10.635099611529427
30
0
10
119.20528390815838
20
-10.058828792819099
30
0
10
119.20528390815838
20
-9.3469633677092361
30
0
0
LINE
5
201
100
AcDbEntity
8
0
100
AcDbLine
10
119.20528390815838
20
-9.3469633677092343
30
0
11
119.20528390815838
21
-4.1435738422957229
31
0
0
SPLINE
5
202
100
AcDbEntity
8
0
100
AcDbSpline
70
0
71
2
72
6
73
3
74
0
42
0.000000001
43
0.0000000001
44
0.0000000001
40
0
40
0
40
0
40
1
40
1
40
1
10
119.20528390815838
20
-4.1435738422957238
30
0
10
119.20528390815838
20
-3.1944211342421349
30
0
10
119.69680765083416
20
-2.5164552548018273
30
0
0
SPLINE
5
203
100
AcDbEntity
8
0
100
AcDbSpline
70
0
71
2
72
6
73
3
74
0
42
0.000000001
43
0.0000000001
44
0.0000000001
40
0
40
0
40
0
40
1
40
1
40
1
10
119.69680765083416
20
-2.5164552548018273
30
0
10
120.18833139350994
20
-1.8384887793150717
30
0
10
121.05274179390057
20
-1.5334035971251303
30
0
0
SPLINE
5
204
100
AcDbEntity
8
0
100
AcDbSpline
70
0
71
2
72
6
73
3
74
0
42
0.000000001
43
0.0000000001
44
0.0000000001
40
0
40
0
40
0
40
1
40
1
40
1
10
121.05274179390057
20
-1.5334035971251303
30
0
10
121.88324907234295
20
-1.2452687838164145
30
0
10
122.63749101570232
20
-1.1181499579039389
30
0
0
SPLINE
5
205
100
AcDbEntity
8
0
100
AcDbSpline
70
0
71
2
72
6
73
3
74
0
42
0.000000001
43
0.0000000001
44
0.0000000001
40
0
40
0
40
0
40
1
40
1
40
1
10
122.63749101570232
20
-1.1181499579039389
30
0
10
123.39172342231853
20
-0.99103113199146331
30
0
10
124.2730806153117
20
-0.99103113199146331
30
0
0
SPLINE
5
206
100
AcDbEntity
8
0
100
AcDbSpline
70
0
71
2
72
6
73
3
74
0
42
0.000000001
43
0.0000000001
44
0.0000000001
40
0
40
0
40
0
40
1
40
1
40
1
10
124.2730806153117
20
-0.99103113199146331
30
0
10
126.37477853706463
20
-0.99103113199146331
30
0
10
128.06968667915447
20
-1.2622179606047446
30
0
0
LINE
5
207
100
AcDbEntity
8
0
100
AcDbLine
10
128.06968667915447
20
-1.2622179606047446
30
0
11
128.06968667915447
21
-2.5334044315901574
31
0
0
SPLINE
5
208
100
AcDbEntity
8
0
100
AcDbSpline
70
0
71
2
72
6
73
3
74
0
42
0.000000001
43
0.0000000001
44
0.0000000001
40
0
40
0
40
0
40
1
40
1
40
1
10
128.06968667915447
20
-2.5334044315901574
30
0
10
127.42562272956951
20
-2.3808618404951867
30
0
10
126.23070695808514
20
-2.2537436106291588
30
0
0
SPLINE
5
209
100
AcDbEntity
8
0
100
AcDbSpline
70
0
71
2
72
6
73
3
74
0
42
0.000000001
43
0.0000000001
44
0.0000000001
40
0
40
0
40
0
40
1
40
1
40
1
10
126.23070695808514
20
-2.2537436106291588
30
0
10
125.03579118660076
20
-2.1266247847166833
30
0
10
124.30698373725994
20
-2.1266247847166833
30
0
0
SPLINE
5
210
100
AcDbEntity
8
0
100
AcDbSpline
70
0
71
2
72
6
73
3
74
0
42
0.000000001
43
0.0000000001
44
0.0000000001
40
0
40
0
40
0
40
1
40
1
40
1
10
124.30698373725994
20
-2.1266247847166833
30
0
10
120.83240487983807
20
-2.1266247847166833
30
0
10
120.83240487983807
20
-4.1266246655073937
30
0
0
LINE
5
211
100
AcDbEntity
8
0
100
AcDbLine
10
120.83240487983807
20
-4.1266246655073937
30
0
11
120.83240487983807
21
-9.3130650141325759
31
0
0
SPLINE
5
212
100
AcDbEntity
8
0
100
AcDbSpline
70
0
71
2
72
6
73
3
74
0
42
0.000000001
43
0.0000000001
44
0.0000000001
40
0
40
0
40
0
40
1
40
1
40
1
10
120.83240487983807
20
-9.3130650141325759
30
0
10
120.83240487983807
20
-9.8554386713591384
30
0
10
121.16291025093182
20
-10.262217722186165
30
0
0
SPLINE
5
213
100
AcDbEntity
8
0
100
AcDbSpline
70
0
71
2
72
6
73
3
74
0
42
0.000000001
43
0.0000000001
44
0.0000000001
40
0
40
0
40
0
40
1
40
1
40
1
10
121.16291025093182
20
-10.262217722186165
30
0
10
121.49341562202557
20
-10.668997965106087
30
0
10
122.06969240120037
20
-10.855437717684822
30
0
0
SPLINE
5
214
100
AcDbEntity
8
0
100
AcDbSpline
70
0
71
2
72
6
73
3
74
0
42
0.000000001
43
0.0000000001
44
0.0000000001
40
0
40
0
40
0
40
1
40
1
40
1
10
122.06969240120037
20
-10.855437717684822
30
0
10
122.61206605842693
20
-11.058827839144783
30
0
10
123.1544397156535
20
-11.135099134692268
30
0
0
SPLINE
5
215
100
AcDbEntity
8
0
100
AcDbSpline
70
0
71
2
72
6
73
3
74
0
42
0.000000001
43
0.0000000001
44
0.0000000001
40
0
40
0
40
0
40
1
40
1
40
1
10
123.1544397156535
20
-11.135099134692268
30
0
10
123.69681337288006
20
-11.211370430239754
30
0
10
124.3747709076701
20
-11.211370430239754
30
0
0
SPLINE
5
216
100
AcDbEntity
8
0
100
AcDbSpline
70
0
71
2
72
6
73
3
74
0
42
0.000000001
43
0.0000000001
44
0.0000000001
40
0
40
0
40
0
40
1
40
1
40
1
10
124.3747709076701
20
-11.211370430239754
30
0
10
125.510368136674
20
-11.211370430239754
30
0
10
126.79850557258709
20
-10.906285248049812
30
0
0
LINE
5
217
100
AcDbEntity
8
0
100
AcDbLine
10
126.7985055725871
20
-10.906285248049812
30
0
11
126.79850557258709
21
-7.0588280775633621
31
0
0
LINE
5
218
100
AcDbEntity
8
0
100
AcDbLine
10
126.79850557258709
20
-7.0588280775633621
30
0
11
124.22223070076092
21
-7.0588280775633621
31
0
0
LINE
5
219
100
AcDbEntity
8
0
100
AcDbLine
10
124.22223070076092
20
-7.0588280775633621
30
0
11
124.22223070076092
21
-5.9062852480498123
31
0
0
LINE
5
220
100
AcDbEntity
8
0
100
AcDbLine
10
124.22223070076092
20
-5.9062852480498123
30
0
11
128.32392671516521
21
-5.9062852480498123
31
0
0
SPLINE
5
221
100
AcDbEntity
8
0
100
AcDbSpline
70
0
71
2
72
6
73
3
74
0
42
0.000000001
43
0.0000000001
44
0.0000000001
40
0
40
0
40
0
40
1
40
1
40
1
10
128.32392671516521
20
-11.821539602526741
30
0
10
126.12053850105389
20
-12.330014906176643
30
0
10
124.2730806153117
20
-12.330014906176643
30
0
0
LINE
5
222
100
AcDbEntity
8
0
100
AcDbLine
10
128.32392671516521
20
-5.9062852480498123
30
0
11
128.32392671516521
21
-11.821539602526741
31
0
0
LWPOLYLINE
5
223
100
AcDbEntity
8
0
100
AcDbPolyline
90
10
70
1
43
0.0
10
114.7137544434367
20
-12.160523138293343
10
108.73070695808514
20
-2.9232349016753001
10
108.73070695808514
20
-12.160523138293343
10
107.29002931526287
20
-12.160523138293343
10
107.29002931526287
20
-1.160522899874763
10
109.2730806153117
20
-1.160522899874763
10
115.25612810066326
20
-10.245268545397835
10
115.25612810066326
20
-1.160522899874763
10
116.69680574348553
20
-1.1605228998747641
10
116.69680574348553
20
-12.160523138293344
0
LWPOLYLINE
5
224
100
AcDbEntity
8
0
100
AcDbPolyline
90
8
70
1
43
0.0
10
103.90019395759685
20
-12.160523138293343
10
102.64595487526043
20
-8.8215400793638992
10
97.934093264847832
20
-8.8215400793638992
10
96.696805743485527
20
-12.160523138293343
10
95.069684771805839
20
-12.160523138293343
10
99.442567614823417
20
-1.160522899874763
10
101.3408706467448
20
-1.160522899874763
10
105.6120584290324
20
-12.160523138293343
0
LWPOLYLINE
5
225
100
AcDbEntity
8
0
100
AcDbPolyline
90
4
70
1
43
0.0
10
100.22222497871502
20
-2.7198453762617869
10
98.357820300370292
20
-7.6859464266386794
10
102.23917463234051
20
-7.6859464266386794
10
100.37476995399578
20
-2.7198453762617869
0
LWPOLYLINE
5
226
100
AcDbEntity
8
0
100
AcDbPolyline
90
12
70
1
43
0.0
10
91.747655658036308
20
-12.160523138293343
10
91.747655658036308
20
-7.0588280775633621
10
85.900196818619804
20
-7.0588280775633621
10
85.900196818619804
20
-12.160523138293343
10
84.256129054337578
20
-12.160523138293343
10
84.256129054337578
20
-1.160522899874763
10
85.900196818619804
20
-1.160522899874763
10
85.900196818619804
20
-5.9062852480498123
10
91.747655658036308
20
-5.9062852480498123
10
91.747655658036308
20
-1.160522899874763
10
93.391723422318535
20
-1.160522899874763
10
93.391723422318535
20
-12.160523138293343
0
SPLINE
5
227
100
AcDbEntity
8
0
100
AcDbSpline
70
0
71
2
72
6
73
3
74
0
42
0.000000001
43
0.0000000001
44
0.0000000001
40
0
40
0
40
0
40
1
40
1
40
1
10
79.086632518082695
20
-11.160522899874763
30
0
10
80.442566661149101
20
-11.160522899874763
30
0
10
82.069682864457207
20
-10.753743849047737
30
0
0
LINE
5
228
100
AcDbEntity
8
0
100
AcDbLine
10
82.069682864457207
20
-10.753743849047737
30
0
11
82.069682864457207
21
-12.007980547198372
31
0
0
SPLINE
5
229
100
AcDbEntity
8
0
100
AcDbSpline
70
0
71
2
72
6
73
3
74
0
42
0.000000001
43
0.0000000001
44
0.0000000001
40
0
40
0
40
0
40
1
40
1
40
1
10
82.069682864457207
20
-12.007980547198372
30
0
10
80.629005221634941
20
-12.330014906176643
30
0
10
78.984937457352714
20
-12.330014906176643
30
0
0
SPLINE
5
230
100
AcDbEntity
8
0
100
AcDbSpline
70
0
71
2
72
6
73
3
74
0
42
0.000000001
43
0.0000000001
44
0.0000000001
40
0
40
0
40
0
40
1
40
1
40
1
10
78.984937457352714
20
-12.330014906176643
30
0
10
74.357819346695976
20
-12.330014906176643
30
0
10
74.357819346695976
20
-9.3469633677092361
30
0
0
LINE
5
231
100
AcDbEntity
8
0
100
AcDbLine
10
74.357819346695976
20
-9.3469633677092361
30
0
11
74.357819346695976
21
-4.1266246655073928
31
0
0
SPLINE
5
232
100
AcDbEntity
8
0
100
AcDbSpline
70
0
71
2
72
6
73
3
74
0
42
0.000000001
43
0.0000000001
44
0.0000000001
40
0
40
0
40
0
40
1
40
1
40
1
10
74.357819346695976
20
-4.126624665507391
30
0
10
74.357819346695976
20
-0.97408195520313101
30
0
10
78.984937457352714
20
-0.97408195520313101
30
0
0
SPLINE
5
233
100
AcDbEntity
8
0
100
AcDbSpline
70
0
71
2
72
6
73
3
74
0
42
0.000000001
43
0.0000000001
44
0.0000000001
40
0
40
0
40
0
40
1
40
1
40
1
10
78.984937457352714
20
-0.97408195520313101
30
0
10
80.561208514481621
20
-0.97408195520313212
30
0
10
82.001886157303886
20
-1.2961163141814036
30
0
0
LINE
5
234
100
AcDbEntity
8
0
100
AcDbLine
10
82.001886157303886
20
-1.2961163141814036
30
0
11
82.001886157303886
21
-2.516455254801826
31
0
0
SPLINE
5
235
100
AcDbEntity
8
0
100
AcDbSpline
70
0
71
2
72
6
73
3
74
0
42
0.000000001
43
0.0000000001
44
0.0000000001
40
0
40
0
40
0
40
1
40
1
40
1
10
82.001886157303886
20
-2.516455254801826
30
0
10
80.374769953995781
20
-2.1096756079283518
30
0
10
79.018835810929374
20
-2.1096756079283505
30
0
0
SPLINE
5
236
100
AcDbEntity
8
0
100
AcDbSpline
70
0
71
2
72
6
73
3
74
0
42
0.000000001
43
0.0000000001
44
0.0000000001
40
0
40
0
40
0
40
1
40
1
40
1
10
79.018835810929374
20
-2.1096756079283505
30
0
10
78.357820300370292
20
-2.1096756079283505
30
0
10
77.866296557694511
20
-2.1859469034758359
30
0
0
SPLINE
5
237
100
AcDbEntity
8
0
100
AcDbSpline
70
0
71
2
72
6
73
3
74
0
42
0.000000001
43
0.0000000001
44
0.0000000001
40
0
40
0
40
0
40
1
40
1
40
1
10
77.866296557694511
20
-2.1859469034758359
30
0
10
77.374768046647148
20
-2.2622181990233212
30
0
10
76.917142657548027
20
-2.4486585476485043
30
0
0
SPLINE
5
238
100
AcDbEntity
8
0
100
AcDbSpline
70
0
71
2
72
6
73
3
74
0
42
0.000000001
43
0.0000000001
44
0.0000000001
40
0
40
0
40
0
40
1
40
1
40
1
10
76.917142657548027
20
-2.4486585476485043
30
0
10
75.934090403824882
20
-2.8723873713103085
30
0
10
75.934090403824882
20
-4.109675488719061
30
0
0
SPLINE
5
239
100
AcDbEntity
8
0
100
AcDbSpline
70
0
71
2
72
6
73
3
74
0
42
0.000000001
43
0.0000000001
44
0.0000000001
40
0
40
0
40
0
40
1
40
1
40
1
10
75.934090403824882
20
-9.2622174837675857
30
0
10
75.934090403824882
20
-11.160522899874763
30
0
10
79.086632518082695
20
-11.160522899874763
30
0
0
LINE
5
240
100
AcDbEntity
8
0
100
AcDbLine
10
75.934090403824882
20
-4.109675488719061
30
0
11
75.934090403824882
21
-9.2622174837675857
31
0
0
LWPOLYLINE
5
241
100
AcDbEntity
8
0
100
AcDbPolyline
90
6
70
1
43
0.0
10
72.934093264847832
20
-11.007980308779793
10
72.934093264847832
20
-12.160523138293343
10
65.883242873459892
20
-12.160523138293343
10
65.883242873459892
20
-1.160522899874763
10
67.527310637742119
20
-1.1605228998747619
10
67.527310637742119
20
-11.007980308779789
0
SPLINE
5
242
100
AcDbEntity
8
0
100
AcDbSpline
70
0
71
2
72
6
73
3
74
0
42
0.000000001
43
0.0000000001
44
0.0000000001
40
0
40
0
40
0
40
1
40
1
40
1
10
62.052736071854667
20
-11.635099849948002
30
0
10
60.764598635941582
20
-12.33001490617664
30
0
10
58.679852275162773
20
-12.33001490617664
30
0
0
SPLINE
5
243
100
AcDbEntity
8
0
100
AcDbSpline
70
0
71
2
72
6
73
3
74
0
42
0.000000001
43
0.0000000001
44
0.0000000001
40
0
40
0
40
0
40
1
40
1
40
1
10
58.679852275162773
20
-12.33001490617664
30
0
10
54.069683341294365
20
-12.33001490617664
30
0
10
54.069683341294365
20
-9.3469633677092325
30
0
0
LINE
5
244
100
AcDbEntity
8
0
100
AcDbLine
10
54.069683341294365
20
-9.3469633677092325
30
0
11
54.069683341294365
21
-4.1435738422957202
31
0
0
SPLINE
5
245
100
AcDbEntity
8
0
100
AcDbSpline
70
0
71
2
72
6
73
3
74
0
42
0.000000001
43
0.0000000001
44
0.0000000001
40
0
40
0
40
0
40
1
40
1
40
1
10
54.069683341294365
20
-4.1435738422957211
30
0
10
54.069683341294365
20
-0.99103113199146109
30
0
10
58.679852275162773
20
-0.99103113199146109
30
0
0
SPLINE
5
246
100
AcDbEntity
8
0
100
AcDbSpline
70
0
71
2
72
6
73
3
74
0
42
0.000000001
43
0.0000000001
44
0.0000000001
40
0
40
0
40
0
40
1
40
1
40
1
10
58.679852275162773
20
-0.99103113199146109
30
0
10
63.340871123581962
20
-0.99103113199146109
30
0
10
63.340871123581962
20
-4.126624665507391
30
0
0
SPLINE
5
247
100
AcDbEntity
8
0
100
AcDbSpline
70
0
71
2
72
6
73
3
74
0
42
0.000000001
43
0.0000000001
44
0.0000000001
40
0
40
0
40
0
40
1
40
1
40
1
10
63.340871123581962
20
-9.3469633677092325
30
0
10
63.340871123581962
20
-10.940183601626469
30
0
10
62.052736071854667
20
-11.635099849948002
30
0
0
LINE
5
248
100
AcDbEntity
8
0
100
AcDbLine
10
63.340871123581962
20
-4.126624665507391
30
0
11
63.340871123581962
21
-9.3469633677092325
31
0
0
SPLINE
5
249
100
AcDbEntity
8
0
100
AcDbSpline
70
0
71
2
72
6
73
3
74
0
42
0.000000001
43
0.0000000001
44
0.0000000001
40
0
40
0
40
0
40
1
40
1
40
1
10
58.696801451951103
20
-2.0588280775633603
30
0
10
57.222225455552177
20
-2.0588280775633603
30
0
10
56.434089926987724
20
-2.5164552548018246
30
0
0
SPLINE
5
250
100
AcDbEntity
8
0
100
AcDbSpline
70
0
71
2
72
6
73
3
74
0
42
0.000000001
43
0.0000000001
44
0.0000000001
40
0
40
0
40
0
40
1
40
1
40
1
10
56.434089926987724
20
-2.5164552548018246
30
0
10
55.645954398423271
20
-2.974082432040289
30
0
10
55.645954398423271
20
-4.0927263119307309
30
0
0
LINE
5
251
100
AcDbEntity
8
0
100
AcDbLine
10
55.645954398423271
20
-4.0927263119307309
30
0
11
55.645954398423271
21
-9.3300141909209042
31
0
0
SPLINE
5
252
100
AcDbEntity
8
0
100
AcDbSpline
70
0
71
2
72
6
73
3
74
0
42
0.000000001
43
0.0000000001
44
0.0000000001
40
0
40
0
40
0
40
1
40
1
40
1
10
55.645954398423271
20
-9.3300141909209025
30
0
10
55.645954398423271
20
-11.22831960702808
30
0
10
58.713750628739433
20
-11.22831960702808
30
0
0
SPLINE
5
253
100
AcDbEntity
8
0
100
AcDbSpline
70
0
71
2
72
6
73
3
74
0
42
0.000000001
43
0.0000000001
44
0.0000000001
40
0
40
0
40
0
40
1
40
1
40
1
10
58.713750628739433
20
-11.22831960702808
30
0
10
61.747650889664726
20
-11.22831960702808
30
0
10
61.747650889664726
20
-9.3300141909209025
30
0
0
SPLINE
5
254
100
AcDbEntity
8
0
100
AcDbSpline
70
0
71
2
72
6
73
3
74
0
42
0.000000001
43
0.0000000001
44
0.0000000001
40
0
40
0
40
0
40
1
40
1
40
1
10
61.747650889664726
20
-4.0927263119307309
30
0
10
61.747650889664726
20
-2.0588280775633603
30
0
10
58.696801451951103
20
-2.0588280775633603
30
0
0
LINE
5
255
100
AcDbEntity
8
0
100
AcDbLine
10
61.747650889664726
20
-9.3300141909209025
30
0
11
61.747650889664726
21
-4.0927263119307309
31
0
0
SPLINE
5
256
100
AcDbEntity
8
0
100
AcDbSpline
70
0
71
2
72
6
73
3
74
0
42
0.000000001
43
0.0000000001
44
0.0000000001
40
0
40
0
40
0
40
1
40
1
40
1
10
50.54425933769329
20
-11.635099849948002
30
0
10
49.256124285965996
20
-12.33001490617664
30
0
10
47.171377925187187
20
-12.33001490617664
30
0
0
SPLINE
5
257
100
AcDbEntity
8
0
100
AcDbSpline
70
0
71
2
72
6
73
3
74
0
42
0.000000001
43
0.0000000001
44
0.0000000001
40
0
40
0
40
0
40
1
40
1
40
1
10
47.171377925187187
20
-12.33001490617664
30
0
10
42.561207799225883
20
-12.33001490617664
30
0
10
42.561207799225883
20
-9.3469633677092325
30
0
0
LINE
5
258
100
AcDbEntity
8
0
100
AcDbLine
10
42.561207799225883
20
-9.3469633677092325
30
0
11
42.561207799225883
21
-4.1435738422957202
31
0
0
SPLINE
5
259
100
AcDbEntity
8
0
100
AcDbSpline
70
0
71
2
72
6
73
3
74
0
42
0.000000001
43
0.0000000001
44
0.0000000001
40
0
40
0
40
0
40
1
40
1
40
1
10
42.561207799225883
20
-4.1435738422957202
30
0
10
42.561207799225883
20
-0.99103113199145998
30
0
10
47.171377925187187
20
-0.99103113199145998
30
0
0
SPLINE
5
260
100
AcDbEntity
8
0
100
AcDbSpline
70
0
71
2
72
6
73
3
74
0
42
0.000000001
43
0.0000000001
44
0.0000000001
40
0
40
0
40
0
40
1
40
1
40
1
10
47.171377925187187
20
-0.99103113199145998
30
0
10
51.832394389420585
20
-0.99103113199146109
30
0
10
51.832394389420585
20
-4.126624665507391
30
0
0
SPLINE
5
261
100
AcDbEntity
8
0
100
AcDbSpline
70
0
71
2
72
6
73
3
74
0
42
0.000000001
43
0.0000000001
44
0.0000000001
40
0
40
0
40
0
40
1
40
1
40
1
10
51.832394389420585
20
-9.3469633677092325
30
0
10
51.832394389420585
20
-10.940183601626469
30
0
10
50.54425933769329
20
-11.635099849948002
30
0
0
LINE
5
262
100
AcDbEntity
8
0
100
AcDbLine
10
51.832394389420585
20
-4.126624665507391
30
0
11
51.832394389420585
21
-9.3469633677092325
31
0
0
SPLINE
5
263
100
AcDbEntity
8
0
100
AcDbSpline
70
0
71
2
72
6
73
3
74
0
42
0.000000001
43
0.0000000001
44
0.0000000001
40
0
40
0
40
0
40
1
40
1
40
1
10
47.188327101975517
20
-2.0588280775633594
30
0
10
45.713749913483696
20
-2.0588280775633594
30
0
10
44.925614384919243
20
-2.5164552548018237
30
0
0
SPLINE
5
264
100
AcDbEntity
8
0
100
AcDbSpline
70
0
71
2
72
6
73
3
74
0
42
0.000000001
43
0.0000000001
44
0.0000000001
40
0
40
0
40
0
40
1
40
1
40
1
10
44.925614384919243
20
-2.5164552548018237
30
0
10
44.13747885635479
20
-2.9740824320402881
30
0
10
44.13747885635479
20
-4.09272631193073
30
0
0
LINE
5
265
100
AcDbEntity
8
0
100
AcDbLine
10
44.13747885635479
20
-4.09272631193073
30
0
11
44.13747885635479
21
-9.3300141909209025
31
0
0
SPLINE
5
266
100
AcDbEntity
8
0
100
AcDbSpline
70
0
71
2
72
6
73
3
74
0
42
0.000000001
43
0.0000000001
44
0.0000000001
40
0
40
0
40
0
40
1
40
1
40
1
10
44.13747885635479
20
-9.3300141909209025
30
0
10
44.13747885635479
20
-11.22831960702808
30
0
10
47.205276278763847
20
-11.22831960702808
30
0
0
SPLINE
5
267
100
AcDbEntity
8
0
100
AcDbSpline
70
0
71
2
72
6
73
3
74
0
42
0.000000001
43
0.0000000001
44
0.0000000001
40
0
40
0
40
0
40
1
40
1
40
1
10
47.205276278763847
20
-11.22831960702808
30
0
10
50.239174155503349
20
-11.22831960702808
30
0
10
50.239174155503349
20
-9.3300141909209025
30
0
0
SPLINE
5
268
100
AcDbEntity
8
0
100
AcDbSpline
70
0
71
2
72
6
73
3
74
0
42
0.000000001
43
0.0000000001
44
0.0000000001
40
0
40
0
40
0
40
1
40
1
40
1
10
50.239174155503349
20
-4.0927263119307309
30
0
10
50.239174155503349
20
-2.0588280775633603
30
0
10
47.188327101975517
20
-2.0588280775633594
30
0
0
LINE
5
269
100
AcDbEntity
8
0
100
AcDbLine
10
50.239174155503349
20
-9.3300141909209025
30
0
11
50.239174155503349
21
-4.0927263119307309
31
0
0
LWPOLYLINE
5
270
100
AcDbEntity
8
0
100
AcDbPolyline
90
8
70
1
43
0.0
10
35.662902681141922
20
-12.160523138293339
10
35.662902681141922
20
-2.3130657293883106
10
31.934088891357014
20
-2.3130657293883106
10
31.934088891357014
20
-1.1605228998747608
10
41.035784272461967
20
-1.160522899874761
10
41.035784272461967
20
-2.3130657293883106
10
37.32391992023571
20
-2.3130657293883106
10
37.323919920235703
20
-12.160523138293339
0
LWPOLYLINE
5
271
100
AcDbEntity
8
0
100
AcDbPolyline
90
4
70
1
43
0.0
10
-4.892978461245904
20
-3.3999999999999875
10
-7.8929784612437546
20
-3.3999999999999861
10
-3.5628514423216733
20
4.1000000000000139
10
-0.56285144232254558
20
4.1000000000000139
0
LWPOLYLINE
5
272
100
AcDbEntity
8
0
100
AcDbPolyline
90
4
70
1
43
0.0
10
5.4371485576779204
20
4.1000000000000139
10
-3.2231054801663639
20
-10.899999999999984
10
-6.2231054801644934
20
-10.899999999999984
10
2.4371485576779195
20
4.1000000000000139
0
LWPOLYLINE
5
273
100
AcDbEntity
8
0
100
AcDbPolyline
90
4
70
1
43
0.0
10
7.1070215387562454
20
-3.3999999999999861
10
2.7768945198349657
20
-10.899999999999984
10
-0.22310548016457155
20
-10.899999999999984
10
4.107021538758393
20
-3.3999999999999861
0
ENDSEC
0
SECTION
2
OBJECTS
0
DICTIONARY
5
C
100
AcDbDictionary
3
ACAD_GROUP
350
D
3
ACAD_MLINESTYLE
350
17
0
DICTIONARY
5
D
100
AcDbDictionary
0
DICTIONARY
5
1A
330
C
100
AcDbDictionary
0
DICTIONARY
5
17
100
AcDbDictionary
0
ENDSEC
0
EOF
