0
SECTION
2
HEADER
9
$INSUNITS
70
4
9
$ACADVER
1
AC1014
9
$HANDSEED
5
FFFF
0
ENDSEC
0
SECTION
2
TABLES
0
TABLE
2
VPORT
5
8
100
AcDbSymbolTable
0
ENDTAB
0
TABLE
2
LTYPE
5
5
100
AcDbSymbolTable
0
LTYPE
5
14
100
AcDbSymbolTableRecord
100
AcDbLinetypeTableRecord
2
BYBLOCK
70
0
0
LTYPE
5
15
100
AcDbSymbolTableRecord
100
AcDbLinetypeTableRecord
2
BYLAYER
70
0
0
LTYPE
5
16
100
AcDbSymbolTableRecord
100
AcDbLinetypeTableRecord
2
DASHED
70
0
3
Dashed __ __ __ __ __ __ __ __ __ __ __ __ __ _
72
65
73
2
40
0.75
49
0.5
74
0
49
-0.25
74
0
0
ENDTAB
0
TABLE
2
LAYER
5
2
100
AcDbSymbolTable
70
2
0
LAYER
5
50
100
AcDbSymbolTableRecord
100
AcDbLayerTableRecord
2
0
70
0
62
7
6
CONTINUOUS
0
ENDTAB
0
TABLE
2
STYLE
5
3
100
AcDbSymbolTable
70
1
0
STYLE
5
11
100
AcDbSymbolTableRecord
100
AcDbTextStyleTableRecord
2
STANDARD
70
0
0
ENDTAB
0
TABLE
2
VIEW
5
6
100
AcDbSymbolTable
70
0
0
ENDTAB
0
TABLE
2
UCS
5
7
100
AcDbSymbolTable
70
0
0
ENDTAB
0
TABLE
2
APPID
5
9
100
AcDbSymbolTable
70
2
0
APPID
5
12
100
AcDbSymbolTableRecord
100
AcDbRegAppTableRecord
2
ACAD
70
0
0
ENDTAB
0
TABLE
2
DIMSTYLE
5
A
100
AcDbSymbolTable
70
1
0
ENDTAB
0
TABLE
2
BLOCK_RECORD
5
1
100
AcDbSymbolTable
70
1
0
BLOCK_RECORD
5
1F
100
AcDbSymbolTableRecord
100
AcDbBlockTableRecord
2
*MODEL_SPACE
0
BLOCK_RECORD
5
1B
100
AcDbSymbolTableRecord
100
AcDbBlockTableRecord
2
*PAPER_SPACE
0
ENDTAB
0
ENDSEC
0
SECTION
2
BLOCKS
0
BLOCK
5
20
100
AcDbEntity
100
AcDbBlockBegin
2
*MODEL_SPACE
0
ENDBLK
5
21
100
AcDbEntity
100
AcDbBlockEnd
0
BLOCK
5
1C
100
AcDbEntity
100
AcDbBlockBegin
2
*PAPER_SPACE
0
ENDBLK
5
1D
100
AcDbEntity
100
AcDbBlockEnd
0
ENDSEC
0
SECTION
2
ENTITIES
0
CIRCLE
5
100
100
AcDbEntity
8
0
100
AcDbCircle
10
3.7999999999999998
20
-10.100000000000001
30
0
40
1.7500000000000002
210
-0
220
0
230
1
6
DASHED
0
CIRCLE
5
101
100
AcDbEntity
8
0
100
AcDbCircle
10
-3.7999999999999998
20
-10.100000000000001
30
0
40
1.7500000000000004
210
-0
220
0
230
1
6
DASHED
0
ARC
5
102
100
AcDbEntity
8
0
100
AcDbCircle
10
-7.5999999999999996
20
-10.100000000000001
30
0
40
2.1500000000000008
210
0
220
-0
230
1
100
AcDbArc
50
90
51
270
6
DASHED
0
LINE
5
103
100
AcDbEntity
8
0
100
AcDbLine
10
-7.5999999999999996
20
-12.250000000000004
30
0
11
7.5999999999999996
21
-12.250000000000004
31
0
6
DASHED
0
ARC
5
104
100
AcDbEntity
8
0
100
AcDbCircle
10
7.5999999999999996
20
-10.100000000000001
30
0
40
2.1500000000000008
210
-0
220
0
230
1
100
AcDbArc
50
-90
51
90
6
DASHED
0
LINE
5
105
100
AcDbEntity
8
0
100
AcDbLine
10
7.5999999999999996
20
-7.9500000000000011
30
0
11
-7.5999999999999996
21
-7.9500000000000011
31
0
6
DASHED
0
CIRCLE
5
106
100
AcDbEntity
8
0
100
AcDbCircle
10
-7.5999999999999996
20
-10.100000000000001
30
0
40
1.7500000000000004
210
-0
220
0
230
1
6
DASHED
0
CIRCLE
5
107
100
AcDbEntity
8
0
100
AcDbCircle
10
0
20
-10.100000000000001
30
0
40
1.7500000000000002
210
-0
220
0
230
1
6
DASHED
0
CIRCLE
5
108
100
AcDbEntity
8
0
100
AcDbCircle
10
7.5999999999999996
20
-10.100000000000001
30
0
40
1.7500000000000004
210
-0
220
0
230
1
6
DASHED
0
CIRCLE
5
109
100
AcDbEntity
8
0
100
AcDbCircle
10
-8.3000000000000043
20
-14.700000000000005
30
0
40
2.0000000000000009
210
-0
220
0
230
1
6
DASHED
0
CIRCLE
5
110
100
AcDbEntity
8
0
100
AcDbCircle
10
0
20
-19.100000000000001
30
0
40
1.7999999999999998
210
-0
220
0
230
1
6
DASHED
0
LINE
5
111
100
AcDbEntity
8
0
100
AcDbLine
10
-2.5000000000000004
20
-4.5000000000000018
30
0
11
-11.800000000000001
21
-4.4999999999999991
31
0
0
ARC
5
112
100
AcDbEntity
8
0
100
AcDbCircle
10
-11.800000000000004
20
-5.0999999999999979
30
0
40
0.59999999999999887
210
0
220
-0
230
1
100
AcDbArc
50
89.999999999999673
51
180
0
LINE
5
113
100
AcDbEntity
8
0
100
AcDbLine
10
-12.400000000000002
20
-5.0999999999999996
30
0
11
-12.400000000000002
21
-21.5
31
0
0
ARC
5
114
100
AcDbEntity
8
0
100
AcDbCircle
10
-11.800000000000006
20
-21.5
30
0
40
0.59999999999999609
210
0
220
0
230
1
100
AcDbArc
50
180
51
270.00000000000017
0
LINE
5
115
100
AcDbEntity
8
0
100
AcDbLine
10
-11.800000000000004
20
-22.100000000000001
30
0
11
11.800000000000004
21
-22.100000000000005
31
0
0
ARC
5
116
100
AcDbEntity
8
0
100
AcDbCircle
10
11.800000000000008
20
-21.500000000000007
30
0
40
0.59999999999999609
210
0
220
0
230
1
100
AcDbArc
50
-90.000000000000369
51
0
0
LINE
5
117
100
AcDbEntity
8
0
100
AcDbLine
10
12.400000000000004
20
-21.500000000000004
30
0
11
12.400000000000004
21
-5.0999999999999996
31
0
0
ARC
5
118
100
AcDbEntity
8
0
100
AcDbCircle
10
11.800000000000006
20
-5.0999999999999979
30
0
40
0.59999999999999831
210
0
220
0
230
1
100
AcDbArc
50
0
51
90.000000000000185
0
LINE
5
119
100
AcDbEntity
8
0
100
AcDbLine
10
11.800000000000004
20
-4.5
30
0
11
2.5000000000000022
21
-4.5000000000000018
31
0
0
ARC
5
120
100
AcDbEntity
8
0
100
AcDbCircle
10
2.5000000000000018
20
-5.9000000000000004
30
0
40
1.3999999999999986
210
0
220
-0
230
1
100
AcDbArc
50
0
51
89.999999999999986
6
DASHED
0
LINE
5
121
100
AcDbEntity
8
0
100
AcDbLine
10
3.9000000000000004
20
-5.8999999999999995
30
0
11
3.9000000000000012
21
-6.8500000000000014
31
0
6
DASHED
0
ARC
5
122
100
AcDbEntity
8
0
100
AcDbCircle
10
4.5000000000000027
20
-6.8500000000000005
30
0
40
0.60000000000000109
210
0
220
0
230
1
100
AcDbArc
50
180
51
269.99999999999983
6
DASHED
0
LINE
5
123
100
AcDbEntity
8
0
100
AcDbLine
10
4.5000000000000009
20
-7.4500000000000011
30
0
11
7.5999999999999996
21
-7.4500000000000011
31
0
6
DASHED
0
ARC
5
124
100
AcDbEntity
8
0
100
AcDbCircle
10
7.5999999999999996
20
-10.100000000000001
30
0
40
2.6500000000000012
210
-0
220
0
230
1
100
AcDbArc
50
-89.999999999999943
51
90
6
DASHED
0
LINE
5
125
100
AcDbEntity
8
0
100
AcDbLine
10
7.6000000000000014
20
-12.750000000000004
30
0
11
4.4999999999999964
21
-12.750000000000004
31
0
6
DASHED
0
ARC
5
126
100
AcDbEntity
8
0
100
AcDbCircle
10
4.4999999999999938
20
-13.350000000000001
30
0
40
0.59999999999999831
210
0
220
-0
230
1
100
AcDbArc
50
89.999999999999744
51
180
6
DASHED
0
LINE
5
127
100
AcDbEntity
8
0
100
AcDbLine
10
3.899999999999995
20
-13.350000000000005
30
0
11
3.8999999999999959
21
-14.300000000000001
31
0
6
DASHED
0
ARC
5
128
100
AcDbEntity
8
0
100
AcDbCircle
10
2.499999999999996
20
-14.300000000000001
30
0
40
1.399999999999999
210
0
220
0
230
1
100
AcDbArc
50
-90
51
0
6
DASHED
0
LINE
5
129
100
AcDbEntity
8
0
100
AcDbLine
10
2.4999999999999956
20
-15.700000000000001
30
0
11
-2.4999999999999969
21
-15.700000000000001
31
0
6
DASHED
0
ARC
5
130
100
AcDbEntity
8
0
100
AcDbCircle
10
-2.4999999999999969
20
-14.300000000000001
30
0
40
1.3999999999999999
210
0
220
0
230
1
100
AcDbArc
50
180
51
270
6
DASHED
0
LINE
5
131
100
AcDbEntity
8
0
100
AcDbLine
10
-3.8999999999999968
20
-14.300000000000001
30
0
11
-3.8999999999999964
21
-13.350000000000005
31
0
6
DASHED
0
ARC
5
132
100
AcDbEntity
8
0
100
AcDbCircle
10
-4.4999999999999947
20
-13.350000000000001
30
0
40
0.59999999999999831
210
0
220
0
230
1
100
AcDbArc
50
0
51
90.000000000000256
6
DASHED
0
LINE
5
133
100
AcDbEntity
8
0
100
AcDbLine
10
-4.4999999999999973
20
-12.750000000000004
30
0
11
-7.5999999999999996
21
-12.750000000000004
31
0
6
DASHED
0
ARC
5
134
100
AcDbEntity
8
0
100
AcDbCircle
10
-7.5999999999999996
20
-10.100000000000001
30
0
40
2.6500000000000012
210
0
220
0
230
1
100
AcDbArc
50
90.000000000000043
51
270
6
DASHED
0
LINE
5
135
100
AcDbEntity
8
0
100
AcDbLine
10
-7.6000000000000014
20
-7.4500000000000011
30
0
11
-4.4999999999999991
21
-7.450000000000002
31
0
6
DASHED
0
ARC
5
136
100
AcDbEntity
8
0
100
AcDbCircle
10
-4.5
20
-6.8500000000000032
30
0
40
0.59999999999999942
210
0
220
0
230
1
100
AcDbArc
50
-89.999999999999901
51
0
6
DASHED
0
LINE
5
137
100
AcDbEntity
8
0
100
AcDbLine
10
-3.9000000000000004
20
-6.8500000000000005
30
0
11
-3.9000000000000004
21
-5.9000000000000021
31
0
6
DASHED
0
ARC
5
138
100
AcDbEntity
8
0
100
AcDbCircle
10
-2.5000000000000004
20
-5.9000000000000021
30
0
40
1.4000000000000001
210
0
220
-0
230
1
100
AcDbArc
50
90
51
180
6
DASHED
0
CIRCLE
5
139
100
AcDbEntity
8
0
100
AcDbCircle
10
8.3000000000000025
20
-14.700000000000008
30
0
40
2.0000000000000009
210
-0
220
0
230
1
6
DASHED
0
LINE
5
140
100
AcDbEntity
8
0
100
AcDbLine
10
2.5000000000000022
20
-4.5000000000000018
30
0
11
-2.5000000000000004
21
-4.5000000000000018
31
0
0
ENDSEC
0
SECTION
2
OBJECTS
0
DICTIONARY
5
C
100
AcDbDictionary
3
ACAD_GROUP
350
D
3
ACAD_MLINESTYLE
350
17
0
DICTIONARY
5
D
100
AcDbDictionary
0
DICTIONARY
5
1A
330
C
100
AcDbDictionary
0
DICTIONARY
5
17
100
AcDbDictionary
0
ENDSEC
0
EOF
