0
SECTION
2
HEADER
9
$INSUNITS
70
4
9
$ACADVER
1
AC1014
9
$HANDSEED
5
FFFF
0
ENDSEC
0
SECTION
2
TABLES
0
TABLE
2
VPORT
5
8
100
AcDbSymbolTable
0
ENDTAB
0
TABLE
2
LTYPE
5
5
100
AcDbSymbolTable
0
LTYPE
5
14
100
AcDbSymbolTableRecord
100
AcDbLinetypeTableRecord
2
BYBLOCK
70
0
0
LTYPE
5
15
100
AcDbSymbolTableRecord
100
AcDbLinetypeTableRecord
2
BYLAYER
70
0
0
LTYPE
5
16
100
AcDbSymbolTableRecord
100
AcDbLinetypeTableRecord
2
DASHED
70
0
3
Dashed __ __ __ __ __ __ __ __ __ __ __ __ __ _
72
65
73
2
40
0.75
49
0.5
74
0
49
-0.25
74
0
0
ENDTAB
0
TABLE
2
LAYER
5
2
100
AcDbSymbolTable
70
2
0
LAYER
5
50
100
AcDbSymbolTableRecord
100
AcDbLayerTableRecord
2
0
70
0
62
7
6
CONTINUOUS
0
ENDTAB
0
TABLE
2
STYLE
5
3
100
AcDbSymbolTable
70
1
0
STYLE
5
11
100
AcDbSymbolTableRecord
100
AcDbTextStyleTableRecord
2
STANDARD
70
0
0
ENDTAB
0
TABLE
2
VIEW
5
6
100
AcDbSymbolTable
70
0
0
ENDTAB
0
TABLE
2
UCS
5
7
100
AcDbSymbolTable
70
0
0
ENDTAB
0
TABLE
2
APPID
5
9
100
AcDbSymbolTable
70
2
0
APPID
5
12
100
AcDbSymbolTableRecord
100
AcDbRegAppTableRecord
2
ACAD
70
0
0
ENDTAB
0
TABLE
2
DIMSTYLE
5
A
100
AcDbSymbolTable
70
1
0
ENDTAB
0
TABLE
2
BLOCK_RECORD
5
1
100
AcDbSymbolTable
70
1
0
BLOCK_RECORD
5
1F
100
AcDbSymbolTableRecord
100
AcDbBlockTableRecord
2
*MODEL_SPACE
0
BLOCK_RECORD
5
1B
100
AcDbSymbolTableRecord
100
AcDbBlockTableRecord
2
*PAPER_SPACE
0
ENDTAB
0
ENDSEC
0
SECTION
2
BLOCKS
0
BLOCK
5
20
100
AcDbEntity
100
AcDbBlockBegin
2
*MODEL_SPACE
0
ENDBLK
5
21
100
AcDbEntity
100
AcDbBlockEnd
0
BLOCK
5
1C
100
AcDbEntity
100
AcDbBlockBegin
2
*PAPER_SPACE
0
ENDBLK
5
1D
100
AcDbEntity
100
AcDbBlockEnd
0
ENDSEC
0
SECTION
2
ENTITIES
0
CIRCLE
5
100
100
AcDbEntity
8
0
100
AcDbCircle
10
-8.3000000000000043
20
-13.700000000000008
30
0
40
1.6000000000000003
210
0
220
-0
230
1
6
DASHED
0
CIRCLE
5
101
100
AcDbEntity
8
0
100
AcDbCircle
10
8.3000000000000025
20
-13.700000000000012
30
0
40
1.6000000000000003
210
0
220
-0
230
1
6
DASHED
0
ARC
5
102
100
AcDbEntity
8
0
100
AcDbCircle
10
-11.800000000000001
20
-5.1000000000000014
30
0
40
1.0000000000000013
210
0
220
-0
230
1
100
AcDbArc
50
90
51
180
6
DASHED
0
LINE
5
103
100
AcDbEntity
8
0
100
AcDbLine
10
-12.800000000000002
20
-5.0999999999999996
30
0
11
-12.800000000000004
21
-21.5
31
0
6
DASHED
0
ARC
5
104
100
AcDbEntity
8
0
100
AcDbCircle
10
-11.800000000000001
20
-21.499999999999993
30
0
40
1.0000000000000031
210
0
220
0
230
1
100
AcDbArc
50
180
51
269.99999999999983
6
DASHED
0
LINE
5
105
100
AcDbEntity
8
0
100
AcDbLine
10
-11.800000000000004
20
-22.5
30
0
11
11.800000000000004
21
-22.5
31
0
6
DASHED
0
ARC
5
106
100
AcDbEntity
8
0
100
AcDbCircle
10
11.800000000000004
20
-21.500000000000004
30
0
40
0.99999999999999645
210
0
220
0
230
1
100
AcDbArc
50
-90
51
0
6
DASHED
0
LINE
5
107
100
AcDbEntity
8
0
100
AcDbLine
10
12.800000000000004
20
-21.500000000000004
30
0
11
12.800000000000002
21
-5.0999999999999996
31
0
6
DASHED
0
ARC
5
108
100
AcDbEntity
8
0
100
AcDbCircle
10
11.800000000000006
20
-5.0999999999999979
30
0
40
0.99999999999999645
210
0
220
0
230
1
100
AcDbArc
50
0
51
90.000000000000099
6
DASHED
0
LINE
5
109
100
AcDbEntity
8
0
100
AcDbLine
10
11.800000000000004
20
-4.0999999999999996
30
0
11
-11.800000000000001
21
-4.0999999999999996
31
0
6
DASHED
0
CIRCLE
5
110
100
AcDbEntity
8
0
100
AcDbCircle
10
0
20
-19.100000000000001
30
0
40
1.3999999999999999
210
0
220
-0
230
1
6
DASHED
0
CIRCLE
5
111
100
AcDbEntity
8
0
100
AcDbCircle
10
7.5999999999999996
20
-10.100000000000001
30
0
40
0.99999999999999978
210
0
220
-0
230
1
6
DASHED
0
CIRCLE
5
112
100
AcDbEntity
8
0
100
AcDbCircle
10
3.7999999999999998
20
-10.100000000000001
30
0
40
0.99999999999999978
210
0
220
-0
230
1
6
DASHED
0
CIRCLE
5
113
100
AcDbEntity
8
0
100
AcDbCircle
10
-7.5999999999999996
20
-10.100000000000001
30
0
40
0.99999999999999978
210
0
220
-0
230
1
6
DASHED
0
CIRCLE
5
114
100
AcDbEntity
8
0
100
AcDbCircle
10
-3.7999999999999998
20
-10.100000000000001
30
0
40
0.99999999999999978
210
0
220
-0
230
1
6
DASHED
0
CIRCLE
5
115
100
AcDbEntity
8
0
100
AcDbCircle
10
0
20
-10.100000000000001
30
0
40
1
210
0
220
-0
230
1
6
DASHED
0
LWPOLYLINE
5
116
100
AcDbEntity
8
0
100
AcDbPolyline
90
8
70
1
43
0.0
10
12.6
20
-21.500000000000004
10
12.600000000000001
20
-5.0999999999999996
42
0.41421356237309664
10
11.800000000000004
20
-4.3000000000000016
10
-11.799999999999999
20
-4.2999999999999998
42
0.41421356237309548
10
-12.600000000000001
20
-5.0999999999999996
10
-12.600000000000005
20
-21.5
42
0.41421356237309342
10
-11.800000000000001
20
-22.300000000000001
10
11.800000000000001
20
-22.300000000000001
42
0.41421356237309587
0
ENDSEC
0
SECTION
2
OBJECTS
0
DICTIONARY
5
C
100
AcDbDictionary
3
ACAD_GROUP
350
D
3
ACAD_MLINESTYLE
350
17
0
DICTIONARY
5
D
100
AcDbDictionary
0
DICTIONARY
5
1A
330
C
100
AcDbDictionary
0
DICTIONARY
5
17
100
AcDbDictionary
0
ENDSEC
0
EOF
